<svg xmlns="http://www.w3.org/2000/svg" xmlns:xlink="http://www.w3.org/1999/xlink" width="466" zoomAndPan="magnify" viewBox="0 0 349.5 350.250003" height="467" preserveAspectRatio="xMidYMid meet" version="1.0"><defs><filter x="0%" y="0%" width="100%" height="100%" id="2383df92cd"><feColorMatrix values="0 0 0 0 1 0 0 0 0 1 0 0 0 0 1 0 0 0 1 0" color-interpolation-filters="sRGB"/></filter><clipPath id="9bd708e0f9"><path d="M 0.125 0 L 348.878906 0 L 348.878906 348 L 0.125 348 Z M 0.125 0 " clip-rule="nonzero"/></clipPath><mask id="2541cb4cdf"><g filter="url(#2383df92cd)"><rect x="-34.95" width="419.4" fill="#000000" y="-35.025" height="420.300004" fill-opacity="0.32"/></g></mask><clipPath id="ff734fa330"><path d="M 249 211 L 308 211 L 308 288 L 249 288 Z M 249 211 " clip-rule="nonzero"/></clipPath><clipPath id="1f397e1340"><path d="M 0.125 47.457031 L 301 -0.0078125 L 348.347656 300.128906 L 47.472656 347.59375 Z M 0.125 47.457031 " clip-rule="nonzero"/></clipPath><clipPath id="3547409d4c"><path d="M 0.125 47.457031 L 301 -0.0078125 L 348.347656 300.128906 L 47.472656 347.59375 Z M 0.125 47.457031 " clip-rule="nonzero"/></clipPath><clipPath id="995215da19"><path d="M 247 213 L 295 213 L 295 276 L 247 276 Z M 247 213 " clip-rule="nonzero"/></clipPath><clipPath id="fd533d994d"><path d="M 0.125 47.457031 L 301 -0.0078125 L 348.347656 300.128906 L 47.472656 347.59375 Z M 0.125 47.457031 " clip-rule="nonzero"/></clipPath><clipPath id="dc195efad5"><path d="M 0.125 47.457031 L 301 -0.0078125 L 348.347656 300.128906 L 47.472656 347.59375 Z M 0.125 47.457031 " clip-rule="nonzero"/></clipPath><clipPath id="40a671a43e"><path d="M 245 215 L 283 215 L 283 263 L 245 263 Z M 245 215 " clip-rule="nonzero"/></clipPath><clipPath id="52c80bdb35"><path d="M 0.125 47.457031 L 301 -0.0078125 L 348.347656 300.128906 L 47.472656 347.59375 Z M 0.125 47.457031 " clip-rule="nonzero"/></clipPath><clipPath id="91e0925bfe"><path d="M 0.125 47.457031 L 301 -0.0078125 L 348.347656 300.128906 L 47.472656 347.59375 Z M 0.125 47.457031 " clip-rule="nonzero"/></clipPath><clipPath id="7fedd55d11"><path d="M 118 121 L 227 121 L 227 225 L 118 225 Z M 118 121 " clip-rule="nonzero"/></clipPath><clipPath id="b99abf8bf3"><path d="M 0.125 47.457031 L 301 -0.0078125 L 348.347656 300.128906 L 47.472656 347.59375 Z M 0.125 47.457031 " clip-rule="nonzero"/></clipPath><clipPath id="0904afe765"><path d="M 0.125 47.457031 L 301 -0.0078125 L 348.347656 300.128906 L 47.472656 347.59375 Z M 0.125 47.457031 " clip-rule="nonzero"/></clipPath><clipPath id="c1522751bb"><path d="M 119 128 L 148 128 L 148 162 L 119 162 Z M 119 128 " clip-rule="nonzero"/></clipPath><clipPath id="b8bd4f9d25"><path d="M 0.125 47.457031 L 301 -0.0078125 L 348.347656 300.128906 L 47.472656 347.59375 Z M 0.125 47.457031 " clip-rule="nonzero"/></clipPath><clipPath id="4e8d5dd6a6"><path d="M 0.125 47.457031 L 301 -0.0078125 L 348.347656 300.128906 L 47.472656 347.59375 Z M 0.125 47.457031 " clip-rule="nonzero"/></clipPath><clipPath id="5e4f49d5c3"><path d="M 181 125 L 215 125 L 215 159 L 181 159 Z M 181 125 " clip-rule="nonzero"/></clipPath><clipPath id="f6ddc7ecec"><path d="M 0.125 47.457031 L 301 -0.0078125 L 348.347656 300.128906 L 47.472656 347.59375 Z M 0.125 47.457031 " clip-rule="nonzero"/></clipPath><clipPath id="2d493fd543"><path d="M 0.125 47.457031 L 301 -0.0078125 L 348.347656 300.128906 L 47.472656 347.59375 Z M 0.125 47.457031 " clip-rule="nonzero"/></clipPath><clipPath id="6899889506"><path d="M 171 8 L 309 8 L 309 159 L 171 159 Z M 171 8 " clip-rule="nonzero"/></clipPath><clipPath id="f71c328f3e"><path d="M 0.125 47.457031 L 301 -0.0078125 L 348.347656 300.128906 L 47.472656 347.59375 Z M 0.125 47.457031 " clip-rule="nonzero"/></clipPath><clipPath id="5d2d0120b8"><path d="M 0.125 47.457031 L 301 -0.0078125 L 348.347656 300.128906 L 47.472656 347.59375 Z M 0.125 47.457031 " clip-rule="nonzero"/></clipPath><clipPath id="177fcc3941"><path d="M 187 19 L 294 19 L 294 147 L 187 147 Z M 187 19 " clip-rule="nonzero"/></clipPath><clipPath id="a667a10a96"><path d="M 0.125 47.457031 L 301 -0.0078125 L 348.347656 300.128906 L 47.472656 347.59375 Z M 0.125 47.457031 " clip-rule="nonzero"/></clipPath><clipPath id="dcf3308514"><path d="M 0.125 47.457031 L 301 -0.0078125 L 348.347656 300.128906 L 47.472656 347.59375 Z M 0.125 47.457031 " clip-rule="nonzero"/></clipPath><clipPath id="86c60f85ed"><path d="M 181 97 L 244 97 L 244 146 L 181 146 Z M 181 97 " clip-rule="nonzero"/></clipPath><clipPath id="c9f2afe001"><path d="M 0.125 47.457031 L 301 -0.0078125 L 348.347656 300.128906 L 47.472656 347.59375 Z M 0.125 47.457031 " clip-rule="nonzero"/></clipPath><clipPath id="bcfa41546c"><path d="M 0.125 47.457031 L 301 -0.0078125 L 348.347656 300.128906 L 47.472656 347.59375 Z M 0.125 47.457031 " clip-rule="nonzero"/></clipPath><clipPath id="65b956a916"><path d="M 190 84 L 254 84 L 254 133 L 190 133 Z M 190 84 " clip-rule="nonzero"/></clipPath><clipPath id="f9b8f05f0b"><path d="M 0.125 47.457031 L 301 -0.0078125 L 348.347656 300.128906 L 47.472656 347.59375 Z M 0.125 47.457031 " clip-rule="nonzero"/></clipPath><clipPath id="53f2712abf"><path d="M 0.125 47.457031 L 301 -0.0078125 L 348.347656 300.128906 L 47.472656 347.59375 Z M 0.125 47.457031 " clip-rule="nonzero"/></clipPath><clipPath id="ac6382386c"><path d="M 199 72 L 263 72 L 263 120 L 199 120 Z M 199 72 " clip-rule="nonzero"/></clipPath><clipPath id="69873b3c4e"><path d="M 0.125 47.457031 L 301 -0.0078125 L 348.347656 300.128906 L 47.472656 347.59375 Z M 0.125 47.457031 " clip-rule="nonzero"/></clipPath><clipPath id="0569971726"><path d="M 0.125 47.457031 L 301 -0.0078125 L 348.347656 300.128906 L 47.472656 347.59375 Z M 0.125 47.457031 " clip-rule="nonzero"/></clipPath><clipPath id="93346a9987"><path d="M 209 59 L 272 59 L 272 107 L 209 107 Z M 209 59 " clip-rule="nonzero"/></clipPath><clipPath id="50f3b18323"><path d="M 0.125 47.457031 L 301 -0.0078125 L 348.347656 300.128906 L 47.472656 347.59375 Z M 0.125 47.457031 " clip-rule="nonzero"/></clipPath><clipPath id="d7b153e5ac"><path d="M 0.125 47.457031 L 301 -0.0078125 L 348.347656 300.128906 L 47.472656 347.59375 Z M 0.125 47.457031 " clip-rule="nonzero"/></clipPath><clipPath id="911f33ebd6"><path d="M 218 46 L 282 46 L 282 95 L 218 95 Z M 218 46 " clip-rule="nonzero"/></clipPath><clipPath id="cbf2c2122f"><path d="M 0.125 47.457031 L 301 -0.0078125 L 348.347656 300.128906 L 47.472656 347.59375 Z M 0.125 47.457031 " clip-rule="nonzero"/></clipPath><clipPath id="174456e92b"><path d="M 0.125 47.457031 L 301 -0.0078125 L 348.347656 300.128906 L 47.472656 347.59375 Z M 0.125 47.457031 " clip-rule="nonzero"/></clipPath><clipPath id="2908912dbe"><path d="M 227 33 L 291 33 L 291 82 L 227 82 Z M 227 33 " clip-rule="nonzero"/></clipPath><clipPath id="de78c4b278"><path d="M 0.125 47.457031 L 301 -0.0078125 L 348.347656 300.128906 L 47.472656 347.59375 Z M 0.125 47.457031 " clip-rule="nonzero"/></clipPath><clipPath id="fcc7f86fc3"><path d="M 0.125 47.457031 L 301 -0.0078125 L 348.347656 300.128906 L 47.472656 347.59375 Z M 0.125 47.457031 " clip-rule="nonzero"/></clipPath><clipPath id="0df5c708c6"><path d="M 237 20 L 300 20 L 300 69 L 237 69 Z M 237 20 " clip-rule="nonzero"/></clipPath><clipPath id="573426d373"><path d="M 0.125 47.457031 L 301 -0.0078125 L 348.347656 300.128906 L 47.472656 347.59375 Z M 0.125 47.457031 " clip-rule="nonzero"/></clipPath><clipPath id="0444ef9d79"><path d="M 0.125 47.457031 L 301 -0.0078125 L 348.347656 300.128906 L 47.472656 347.59375 Z M 0.125 47.457031 " clip-rule="nonzero"/></clipPath><clipPath id="3cf0e221a6"><path d="M 133 189 L 168 189 L 168 224 L 133 224 Z M 133 189 " clip-rule="nonzero"/></clipPath><clipPath id="5adf0d2ed5"><path d="M 0.125 47.457031 L 301 -0.0078125 L 348.347656 300.128906 L 47.472656 347.59375 Z M 0.125 47.457031 " clip-rule="nonzero"/></clipPath><clipPath id="56f26e910d"><path d="M 0.125 47.457031 L 301 -0.0078125 L 348.347656 300.128906 L 47.472656 347.59375 Z M 0.125 47.457031 " clip-rule="nonzero"/></clipPath><clipPath id="ffa5897847"><path d="M 39 189 L 177 189 L 177 340 L 39 340 Z M 39 189 " clip-rule="nonzero"/></clipPath><clipPath id="31e000795b"><path d="M 0.125 47.457031 L 301 -0.0078125 L 348.347656 300.128906 L 47.472656 347.59375 Z M 0.125 47.457031 " clip-rule="nonzero"/></clipPath><clipPath id="30c9fd87ce"><path d="M 0.125 47.457031 L 301 -0.0078125 L 348.347656 300.128906 L 47.472656 347.59375 Z M 0.125 47.457031 " clip-rule="nonzero"/></clipPath><clipPath id="11ce52f742"><path d="M 55 201 L 162 201 L 162 329 L 55 329 Z M 55 201 " clip-rule="nonzero"/></clipPath><clipPath id="5b2243b314"><path d="M 0.125 47.457031 L 301 -0.0078125 L 348.347656 300.128906 L 47.472656 347.59375 Z M 0.125 47.457031 " clip-rule="nonzero"/></clipPath><clipPath id="f59889420e"><path d="M 0.125 47.457031 L 301 -0.0078125 L 348.347656 300.128906 L 47.472656 347.59375 Z M 0.125 47.457031 " clip-rule="nonzero"/></clipPath><clipPath id="de6369ea2b"><path d="M 104 202 L 168 202 L 168 251 L 104 251 Z M 104 202 " clip-rule="nonzero"/></clipPath><clipPath id="907e01d72f"><path d="M 0.125 47.457031 L 301 -0.0078125 L 348.347656 300.128906 L 47.472656 347.59375 Z M 0.125 47.457031 " clip-rule="nonzero"/></clipPath><clipPath id="28aae5bbc5"><path d="M 0.125 47.457031 L 301 -0.0078125 L 348.347656 300.128906 L 47.472656 347.59375 Z M 0.125 47.457031 " clip-rule="nonzero"/></clipPath><clipPath id="ddf7208b13"><path d="M 95 215 L 159 215 L 159 264 L 95 264 Z M 95 215 " clip-rule="nonzero"/></clipPath><clipPath id="6ad9e29e9e"><path d="M 0.125 47.457031 L 301 -0.0078125 L 348.347656 300.128906 L 47.472656 347.59375 Z M 0.125 47.457031 " clip-rule="nonzero"/></clipPath><clipPath id="00e89fbcf3"><path d="M 0.125 47.457031 L 301 -0.0078125 L 348.347656 300.128906 L 47.472656 347.59375 Z M 0.125 47.457031 " clip-rule="nonzero"/></clipPath><clipPath id="f2a1ae473b"><path d="M 86 228 L 149 228 L 149 276 L 86 276 Z M 86 228 " clip-rule="nonzero"/></clipPath><clipPath id="ececce1f36"><path d="M 0.125 47.457031 L 301 -0.0078125 L 348.347656 300.128906 L 47.472656 347.59375 Z M 0.125 47.457031 " clip-rule="nonzero"/></clipPath><clipPath id="0732c4debb"><path d="M 0.125 47.457031 L 301 -0.0078125 L 348.347656 300.128906 L 47.472656 347.59375 Z M 0.125 47.457031 " clip-rule="nonzero"/></clipPath><clipPath id="49051a3f40"><path d="M 76 241 L 140 241 L 140 289 L 76 289 Z M 76 241 " clip-rule="nonzero"/></clipPath><clipPath id="4a627caaa9"><path d="M 0.125 47.457031 L 301 -0.0078125 L 348.347656 300.128906 L 47.472656 347.59375 Z M 0.125 47.457031 " clip-rule="nonzero"/></clipPath><clipPath id="42a1472573"><path d="M 0.125 47.457031 L 301 -0.0078125 L 348.347656 300.128906 L 47.472656 347.59375 Z M 0.125 47.457031 " clip-rule="nonzero"/></clipPath><clipPath id="0a367df4c7"><path d="M 67 254 L 131 254 L 131 302 L 67 302 Z M 67 254 " clip-rule="nonzero"/></clipPath><clipPath id="2675357357"><path d="M 0.125 47.457031 L 301 -0.0078125 L 348.347656 300.128906 L 47.472656 347.59375 Z M 0.125 47.457031 " clip-rule="nonzero"/></clipPath><clipPath id="5ac9ad0ee2"><path d="M 0.125 47.457031 L 301 -0.0078125 L 348.347656 300.128906 L 47.472656 347.59375 Z M 0.125 47.457031 " clip-rule="nonzero"/></clipPath><clipPath id="4673c759a2"><path d="M 58 266 L 121 266 L 121 315 L 58 315 Z M 58 266 " clip-rule="nonzero"/></clipPath><clipPath id="0d17873652"><path d="M 0.125 47.457031 L 301 -0.0078125 L 348.347656 300.128906 L 47.472656 347.59375 Z M 0.125 47.457031 " clip-rule="nonzero"/></clipPath><clipPath id="6b8fa93d5a"><path d="M 0.125 47.457031 L 301 -0.0078125 L 348.347656 300.128906 L 47.472656 347.59375 Z M 0.125 47.457031 " clip-rule="nonzero"/></clipPath><clipPath id="a6fbf8fd7a"><path d="M 48 279 L 112 279 L 112 328 L 48 328 Z M 48 279 " clip-rule="nonzero"/></clipPath><clipPath id="a38f3a5dad"><path d="M 0.125 47.457031 L 301 -0.0078125 L 348.347656 300.128906 L 47.472656 347.59375 Z M 0.125 47.457031 " clip-rule="nonzero"/></clipPath><clipPath id="b1623bae1d"><path d="M 0.125 47.457031 L 301 -0.0078125 L 348.347656 300.128906 L 47.472656 347.59375 Z M 0.125 47.457031 " clip-rule="nonzero"/></clipPath><clipPath id="855a64f36f"><path d="M 193 182 L 227 182 L 227 218 L 193 218 Z M 193 182 " clip-rule="nonzero"/></clipPath><clipPath id="b693a087d0"><path d="M 0.125 47.457031 L 301 -0.0078125 L 348.347656 300.128906 L 47.472656 347.59375 Z M 0.125 47.457031 " clip-rule="nonzero"/></clipPath><clipPath id="1e0029c9d2"><path d="M 0.125 47.457031 L 301 -0.0078125 L 348.347656 300.128906 L 47.472656 347.59375 Z M 0.125 47.457031 " clip-rule="nonzero"/></clipPath><clipPath id="32d7887526"><path d="M 209 196 L 234 196 L 234 221 L 209 221 Z M 209 196 " clip-rule="nonzero"/></clipPath><clipPath id="6a870446cc"><path d="M 0.125 47.457031 L 301 -0.0078125 L 348.347656 300.128906 L 47.472656 347.59375 Z M 0.125 47.457031 " clip-rule="nonzero"/></clipPath><clipPath id="ebac6eb33e"><path d="M 0.125 47.457031 L 301 -0.0078125 L 348.347656 300.128906 L 47.472656 347.59375 Z M 0.125 47.457031 " clip-rule="nonzero"/></clipPath><clipPath id="d6ef202e25"><path d="M 214 194 L 258 194 L 258 246 L 214 246 Z M 214 194 " clip-rule="nonzero"/></clipPath><clipPath id="4a9d727fbf"><path d="M 0.125 47.457031 L 301 -0.0078125 L 348.347656 300.128906 L 47.472656 347.59375 Z M 0.125 47.457031 " clip-rule="nonzero"/></clipPath><clipPath id="dcedfa74f3"><path d="M 0.125 47.457031 L 301 -0.0078125 L 348.347656 300.128906 L 47.472656 347.59375 Z M 0.125 47.457031 " clip-rule="nonzero"/></clipPath><clipPath id="ebc6cc7964"><path d="M 235 217 L 253 217 L 253 232 L 235 232 Z M 235 217 " clip-rule="nonzero"/></clipPath><clipPath id="8cc5d6273d"><path d="M 0.125 47.457031 L 301 -0.0078125 L 348.347656 300.128906 L 47.472656 347.59375 Z M 0.125 47.457031 " clip-rule="nonzero"/></clipPath><clipPath id="5e4158f144"><path d="M 0.125 47.457031 L 301 -0.0078125 L 348.347656 300.128906 L 47.472656 347.59375 Z M 0.125 47.457031 " clip-rule="nonzero"/></clipPath><clipPath id="14f7d9c0d8"><path d="M 244 221 L 266 221 L 266 244 L 244 244 Z M 244 221 " clip-rule="nonzero"/></clipPath><clipPath id="b59a845680"><path d="M 0.125 47.457031 L 301 -0.0078125 L 348.347656 300.128906 L 47.472656 347.59375 Z M 0.125 47.457031 " clip-rule="nonzero"/></clipPath><clipPath id="873e3339df"><path d="M 0.125 47.457031 L 301 -0.0078125 L 348.347656 300.128906 L 47.472656 347.59375 Z M 0.125 47.457031 " clip-rule="nonzero"/></clipPath><clipPath id="5df0e33ea2"><rect x="0" width="349" y="0" height="348"/></clipPath><clipPath id="40efd1efc2"><path d="M 0.125 1 L 348.878906 1 L 348.878906 349.5 L 0.125 349.5 Z M 0.125 1 " clip-rule="nonzero"/></clipPath><mask id="2a9573a4fc"><g filter="url(#2383df92cd)"><rect x="-34.95" width="419.4" fill="#000000" y="-35.025" height="420.300004" fill-opacity="0.32"/></g></mask><clipPath id="b44f337306"><path d="M 249 212 L 308 212 L 308 288 L 249 288 Z M 249 212 " clip-rule="nonzero"/></clipPath><clipPath id="9a7799767d"><path d="M 0.125 47.625 L 301 0.164062 L 348.347656 300.300781 L 47.472656 347.761719 Z M 0.125 47.625 " clip-rule="nonzero"/></clipPath><clipPath id="0a7680d3a0"><path d="M 0.125 47.625 L 301 0.164062 L 348.347656 300.300781 L 47.472656 347.761719 Z M 0.125 47.625 " clip-rule="nonzero"/></clipPath><clipPath id="c7e1c577eb"><path d="M 247 214 L 295 214 L 295 276 L 247 276 Z M 247 214 " clip-rule="nonzero"/></clipPath><clipPath id="a849f8fc4f"><path d="M 0.125 47.625 L 301 0.164062 L 348.347656 300.300781 L 47.472656 347.761719 Z M 0.125 47.625 " clip-rule="nonzero"/></clipPath><clipPath id="138933179a"><path d="M 0.125 47.625 L 301 0.164062 L 348.347656 300.300781 L 47.472656 347.761719 Z M 0.125 47.625 " clip-rule="nonzero"/></clipPath><clipPath id="40faf60c94"><path d="M 245 216 L 283 216 L 283 263 L 245 263 Z M 245 216 " clip-rule="nonzero"/></clipPath><clipPath id="d14c80ac5d"><path d="M 0.125 47.625 L 301 0.164062 L 348.347656 300.300781 L 47.472656 347.761719 Z M 0.125 47.625 " clip-rule="nonzero"/></clipPath><clipPath id="86d699d39e"><path d="M 0.125 47.625 L 301 0.164062 L 348.347656 300.300781 L 47.472656 347.761719 Z M 0.125 47.625 " clip-rule="nonzero"/></clipPath><clipPath id="1af4f65272"><path d="M 118 121 L 227 121 L 227 225 L 118 225 Z M 118 121 " clip-rule="nonzero"/></clipPath><clipPath id="af02fa0746"><path d="M 0.125 47.625 L 301 0.164062 L 348.347656 300.300781 L 47.472656 347.761719 Z M 0.125 47.625 " clip-rule="nonzero"/></clipPath><clipPath id="fd369a4b03"><path d="M 0.125 47.625 L 301 0.164062 L 348.347656 300.300781 L 47.472656 347.761719 Z M 0.125 47.625 " clip-rule="nonzero"/></clipPath><clipPath id="c624f40a68"><path d="M 119 128 L 148 128 L 148 162 L 119 162 Z M 119 128 " clip-rule="nonzero"/></clipPath><clipPath id="b466a601b2"><path d="M 0.125 47.625 L 301 0.164062 L 348.347656 300.300781 L 47.472656 347.761719 Z M 0.125 47.625 " clip-rule="nonzero"/></clipPath><clipPath id="ceb48e4fd3"><path d="M 0.125 47.625 L 301 0.164062 L 348.347656 300.300781 L 47.472656 347.761719 Z M 0.125 47.625 " clip-rule="nonzero"/></clipPath><clipPath id="05d68ba927"><path d="M 181 125 L 215 125 L 215 159 L 181 159 Z M 181 125 " clip-rule="nonzero"/></clipPath><clipPath id="2ceccfd033"><path d="M 0.125 47.625 L 301 0.164062 L 348.347656 300.300781 L 47.472656 347.761719 Z M 0.125 47.625 " clip-rule="nonzero"/></clipPath><clipPath id="fed9e20705"><path d="M 0.125 47.625 L 301 0.164062 L 348.347656 300.300781 L 47.472656 347.761719 Z M 0.125 47.625 " clip-rule="nonzero"/></clipPath><clipPath id="2f9eda32e7"><path d="M 171 8 L 309 8 L 309 159 L 171 159 Z M 171 8 " clip-rule="nonzero"/></clipPath><clipPath id="42f2327f69"><path d="M 0.125 47.625 L 301 0.164062 L 348.347656 300.300781 L 47.472656 347.761719 Z M 0.125 47.625 " clip-rule="nonzero"/></clipPath><clipPath id="eebadeede6"><path d="M 0.125 47.625 L 301 0.164062 L 348.347656 300.300781 L 47.472656 347.761719 Z M 0.125 47.625 " clip-rule="nonzero"/></clipPath><clipPath id="4e04c4b2db"><path d="M 187 20 L 294 20 L 294 148 L 187 148 Z M 187 20 " clip-rule="nonzero"/></clipPath><clipPath id="9c840c3138"><path d="M 0.125 47.625 L 301 0.164062 L 348.347656 300.300781 L 47.472656 347.761719 Z M 0.125 47.625 " clip-rule="nonzero"/></clipPath><clipPath id="7ef108d405"><path d="M 0.125 47.625 L 301 0.164062 L 348.347656 300.300781 L 47.472656 347.761719 Z M 0.125 47.625 " clip-rule="nonzero"/></clipPath><clipPath id="8031deaa06"><path d="M 181 98 L 244 98 L 244 146 L 181 146 Z M 181 98 " clip-rule="nonzero"/></clipPath><clipPath id="acd09ada0c"><path d="M 0.125 47.625 L 301 0.164062 L 348.347656 300.300781 L 47.472656 347.761719 Z M 0.125 47.625 " clip-rule="nonzero"/></clipPath><clipPath id="8ff32eddba"><path d="M 0.125 47.625 L 301 0.164062 L 348.347656 300.300781 L 47.472656 347.761719 Z M 0.125 47.625 " clip-rule="nonzero"/></clipPath><clipPath id="093625d9d8"><path d="M 190 85 L 254 85 L 254 133 L 190 133 Z M 190 85 " clip-rule="nonzero"/></clipPath><clipPath id="7d82643a4c"><path d="M 0.125 47.625 L 301 0.164062 L 348.347656 300.300781 L 47.472656 347.761719 Z M 0.125 47.625 " clip-rule="nonzero"/></clipPath><clipPath id="a11a25c476"><path d="M 0.125 47.625 L 301 0.164062 L 348.347656 300.300781 L 47.472656 347.761719 Z M 0.125 47.625 " clip-rule="nonzero"/></clipPath><clipPath id="66e08d50ff"><path d="M 199 72 L 263 72 L 263 120 L 199 120 Z M 199 72 " clip-rule="nonzero"/></clipPath><clipPath id="24bb41b246"><path d="M 0.125 47.625 L 301 0.164062 L 348.347656 300.300781 L 47.472656 347.761719 Z M 0.125 47.625 " clip-rule="nonzero"/></clipPath><clipPath id="bbbd25cb1b"><path d="M 0.125 47.625 L 301 0.164062 L 348.347656 300.300781 L 47.472656 347.761719 Z M 0.125 47.625 " clip-rule="nonzero"/></clipPath><clipPath id="f9ba576174"><path d="M 209 59 L 272 59 L 272 108 L 209 108 Z M 209 59 " clip-rule="nonzero"/></clipPath><clipPath id="e9443a4727"><path d="M 0.125 47.625 L 301 0.164062 L 348.347656 300.300781 L 47.472656 347.761719 Z M 0.125 47.625 " clip-rule="nonzero"/></clipPath><clipPath id="d8a199fada"><path d="M 0.125 47.625 L 301 0.164062 L 348.347656 300.300781 L 47.472656 347.761719 Z M 0.125 47.625 " clip-rule="nonzero"/></clipPath><clipPath id="f30bd0717f"><path d="M 218 46 L 282 46 L 282 95 L 218 95 Z M 218 46 " clip-rule="nonzero"/></clipPath><clipPath id="254627544a"><path d="M 0.125 47.625 L 301 0.164062 L 348.347656 300.300781 L 47.472656 347.761719 Z M 0.125 47.625 " clip-rule="nonzero"/></clipPath><clipPath id="cf9c8be70c"><path d="M 0.125 47.625 L 301 0.164062 L 348.347656 300.300781 L 47.472656 347.761719 Z M 0.125 47.625 " clip-rule="nonzero"/></clipPath><clipPath id="5caf673b98"><path d="M 227 33 L 291 33 L 291 82 L 227 82 Z M 227 33 " clip-rule="nonzero"/></clipPath><clipPath id="765db52041"><path d="M 0.125 47.625 L 301 0.164062 L 348.347656 300.300781 L 47.472656 347.761719 Z M 0.125 47.625 " clip-rule="nonzero"/></clipPath><clipPath id="a7e10f6ac4"><path d="M 0.125 47.625 L 301 0.164062 L 348.347656 300.300781 L 47.472656 347.761719 Z M 0.125 47.625 " clip-rule="nonzero"/></clipPath><clipPath id="bceae948e1"><path d="M 237 20 L 300 20 L 300 69 L 237 69 Z M 237 20 " clip-rule="nonzero"/></clipPath><clipPath id="ad59ff9d5f"><path d="M 0.125 47.625 L 301 0.164062 L 348.347656 300.300781 L 47.472656 347.761719 Z M 0.125 47.625 " clip-rule="nonzero"/></clipPath><clipPath id="92c85e1e18"><path d="M 0.125 47.625 L 301 0.164062 L 348.347656 300.300781 L 47.472656 347.761719 Z M 0.125 47.625 " clip-rule="nonzero"/></clipPath><clipPath id="370f5219ad"><path d="M 133 190 L 168 190 L 168 224 L 133 224 Z M 133 190 " clip-rule="nonzero"/></clipPath><clipPath id="b64847c245"><path d="M 0.125 47.625 L 301 0.164062 L 348.347656 300.300781 L 47.472656 347.761719 Z M 0.125 47.625 " clip-rule="nonzero"/></clipPath><clipPath id="f1047b6b73"><path d="M 0.125 47.625 L 301 0.164062 L 348.347656 300.300781 L 47.472656 347.761719 Z M 0.125 47.625 " clip-rule="nonzero"/></clipPath><clipPath id="0834082cb7"><path d="M 39 190 L 177 190 L 177 340 L 39 340 Z M 39 190 " clip-rule="nonzero"/></clipPath><clipPath id="704a45f911"><path d="M 0.125 47.625 L 301 0.164062 L 348.347656 300.300781 L 47.472656 347.761719 Z M 0.125 47.625 " clip-rule="nonzero"/></clipPath><clipPath id="abba46d437"><path d="M 0.125 47.625 L 301 0.164062 L 348.347656 300.300781 L 47.472656 347.761719 Z M 0.125 47.625 " clip-rule="nonzero"/></clipPath><clipPath id="f91addc373"><path d="M 55 201 L 162 201 L 162 329 L 55 329 Z M 55 201 " clip-rule="nonzero"/></clipPath><clipPath id="aed500a83d"><path d="M 0.125 47.625 L 301 0.164062 L 348.347656 300.300781 L 47.472656 347.761719 Z M 0.125 47.625 " clip-rule="nonzero"/></clipPath><clipPath id="bf1d997ecd"><path d="M 0.125 47.625 L 301 0.164062 L 348.347656 300.300781 L 47.472656 347.761719 Z M 0.125 47.625 " clip-rule="nonzero"/></clipPath><clipPath id="0eac7e2fd6"><path d="M 104 202 L 168 202 L 168 251 L 104 251 Z M 104 202 " clip-rule="nonzero"/></clipPath><clipPath id="bfa0598197"><path d="M 0.125 47.625 L 301 0.164062 L 348.347656 300.300781 L 47.472656 347.761719 Z M 0.125 47.625 " clip-rule="nonzero"/></clipPath><clipPath id="7cc7cf3b36"><path d="M 0.125 47.625 L 301 0.164062 L 348.347656 300.300781 L 47.472656 347.761719 Z M 0.125 47.625 " clip-rule="nonzero"/></clipPath><clipPath id="b1a9e80df6"><path d="M 95 215 L 159 215 L 159 264 L 95 264 Z M 95 215 " clip-rule="nonzero"/></clipPath><clipPath id="e8837b2efe"><path d="M 0.125 47.625 L 301 0.164062 L 348.347656 300.300781 L 47.472656 347.761719 Z M 0.125 47.625 " clip-rule="nonzero"/></clipPath><clipPath id="c1b07423cf"><path d="M 0.125 47.625 L 301 0.164062 L 348.347656 300.300781 L 47.472656 347.761719 Z M 0.125 47.625 " clip-rule="nonzero"/></clipPath><clipPath id="d407d55a8a"><path d="M 86 228 L 149 228 L 149 277 L 86 277 Z M 86 228 " clip-rule="nonzero"/></clipPath><clipPath id="56aaa3a408"><path d="M 0.125 47.625 L 301 0.164062 L 348.347656 300.300781 L 47.472656 347.761719 Z M 0.125 47.625 " clip-rule="nonzero"/></clipPath><clipPath id="edf4362680"><path d="M 0.125 47.625 L 301 0.164062 L 348.347656 300.300781 L 47.472656 347.761719 Z M 0.125 47.625 " clip-rule="nonzero"/></clipPath><clipPath id="c5b9575370"><path d="M 76 241 L 140 241 L 140 290 L 76 290 Z M 76 241 " clip-rule="nonzero"/></clipPath><clipPath id="cd9b4e3cac"><path d="M 0.125 47.625 L 301 0.164062 L 348.347656 300.300781 L 47.472656 347.761719 Z M 0.125 47.625 " clip-rule="nonzero"/></clipPath><clipPath id="94e45f9556"><path d="M 0.125 47.625 L 301 0.164062 L 348.347656 300.300781 L 47.472656 347.761719 Z M 0.125 47.625 " clip-rule="nonzero"/></clipPath><clipPath id="a648ec6d49"><path d="M 67 254 L 131 254 L 131 302 L 67 302 Z M 67 254 " clip-rule="nonzero"/></clipPath><clipPath id="98c4f7d1f9"><path d="M 0.125 47.625 L 301 0.164062 L 348.347656 300.300781 L 47.472656 347.761719 Z M 0.125 47.625 " clip-rule="nonzero"/></clipPath><clipPath id="2768b1b51e"><path d="M 0.125 47.625 L 301 0.164062 L 348.347656 300.300781 L 47.472656 347.761719 Z M 0.125 47.625 " clip-rule="nonzero"/></clipPath><clipPath id="93da3cb24e"><path d="M 58 267 L 121 267 L 121 315 L 58 315 Z M 58 267 " clip-rule="nonzero"/></clipPath><clipPath id="8c3328ff87"><path d="M 0.125 47.625 L 301 0.164062 L 348.347656 300.300781 L 47.472656 347.761719 Z M 0.125 47.625 " clip-rule="nonzero"/></clipPath><clipPath id="846f363e8e"><path d="M 0.125 47.625 L 301 0.164062 L 348.347656 300.300781 L 47.472656 347.761719 Z M 0.125 47.625 " clip-rule="nonzero"/></clipPath><clipPath id="f004f1c081"><path d="M 48 279 L 112 279 L 112 328 L 48 328 Z M 48 279 " clip-rule="nonzero"/></clipPath><clipPath id="d871a71ad0"><path d="M 0.125 47.625 L 301 0.164062 L 348.347656 300.300781 L 47.472656 347.761719 Z M 0.125 47.625 " clip-rule="nonzero"/></clipPath><clipPath id="a0f03c8a16"><path d="M 0.125 47.625 L 301 0.164062 L 348.347656 300.300781 L 47.472656 347.761719 Z M 0.125 47.625 " clip-rule="nonzero"/></clipPath><clipPath id="d0ade8156e"><path d="M 193 182 L 227 182 L 227 218 L 193 218 Z M 193 182 " clip-rule="nonzero"/></clipPath><clipPath id="01a73a8ced"><path d="M 0.125 47.625 L 301 0.164062 L 348.347656 300.300781 L 47.472656 347.761719 Z M 0.125 47.625 " clip-rule="nonzero"/></clipPath><clipPath id="12753cf03f"><path d="M 0.125 47.625 L 301 0.164062 L 348.347656 300.300781 L 47.472656 347.761719 Z M 0.125 47.625 " clip-rule="nonzero"/></clipPath><clipPath id="d201f02cc0"><path d="M 209 197 L 234 197 L 234 221 L 209 221 Z M 209 197 " clip-rule="nonzero"/></clipPath><clipPath id="9484dd519d"><path d="M 0.125 47.625 L 301 0.164062 L 348.347656 300.300781 L 47.472656 347.761719 Z M 0.125 47.625 " clip-rule="nonzero"/></clipPath><clipPath id="daca8d4377"><path d="M 0.125 47.625 L 301 0.164062 L 348.347656 300.300781 L 47.472656 347.761719 Z M 0.125 47.625 " clip-rule="nonzero"/></clipPath><clipPath id="cec311b582"><path d="M 214 194 L 258 194 L 258 246 L 214 246 Z M 214 194 " clip-rule="nonzero"/></clipPath><clipPath id="7564db0374"><path d="M 0.125 47.625 L 301 0.164062 L 348.347656 300.300781 L 47.472656 347.761719 Z M 0.125 47.625 " clip-rule="nonzero"/></clipPath><clipPath id="392c9ce14d"><path d="M 0.125 47.625 L 301 0.164062 L 348.347656 300.300781 L 47.472656 347.761719 Z M 0.125 47.625 " clip-rule="nonzero"/></clipPath><clipPath id="0c96facce8"><path d="M 235 217 L 253 217 L 253 233 L 235 233 Z M 235 217 " clip-rule="nonzero"/></clipPath><clipPath id="e9a5042f68"><path d="M 0.125 47.625 L 301 0.164062 L 348.347656 300.300781 L 47.472656 347.761719 Z M 0.125 47.625 " clip-rule="nonzero"/></clipPath><clipPath id="5b4d736645"><path d="M 0.125 47.625 L 301 0.164062 L 348.347656 300.300781 L 47.472656 347.761719 Z M 0.125 47.625 " clip-rule="nonzero"/></clipPath><clipPath id="5ec1181a55"><path d="M 244 221 L 266 221 L 266 245 L 244 245 Z M 244 221 " clip-rule="nonzero"/></clipPath><clipPath id="39f91cfc82"><path d="M 0.125 47.625 L 301 0.164062 L 348.347656 300.300781 L 47.472656 347.761719 Z M 0.125 47.625 " clip-rule="nonzero"/></clipPath><clipPath id="ba0273a578"><path d="M 0.125 47.625 L 301 0.164062 L 348.347656 300.300781 L 47.472656 347.761719 Z M 0.125 47.625 " clip-rule="nonzero"/></clipPath><clipPath id="1cf9e6750e"><rect x="0" width="349" y="0" height="349"/></clipPath></defs><g clip-path="url(#9bd708e0f9)"><g mask="url(#2541cb4cdf)"><g transform="matrix(1, 0, 0, 1, 0, -0.000000000000002082)"><g clip-path="url(#5df0e33ea2)"><g clip-path="url(#ff734fa330)"><g clip-path="url(#1f397e1340)"><g clip-path="url(#3547409d4c)"><path fill="#232e26" d="M 253.933594 287.652344 C 249.300781 288.382812 248.195312 281.347656 252.824219 280.617188 C 283.648438 275.753906 304.667969 246.867188 299.804688 216.039062 C 299.074219 211.410156 306.109375 210.300781 306.839844 214.929688 C 312.316406 249.644531 288.652344 282.175781 253.933594 287.652344 Z M 253.933594 287.652344 " fill-opacity="1" fill-rule="evenodd"/></g></g></g><g clip-path="url(#995215da19)"><g clip-path="url(#fd533d994d)"><g clip-path="url(#dc195efad5)"><path fill="#232e26" d="M 251.949219 275.085938 C 247.320312 275.816406 246.210938 268.78125 250.839844 268.050781 C 274.722656 264.28125 291.003906 241.898438 287.238281 218.019531 C 286.507812 213.386719 293.542969 212.277344 294.273438 216.90625 C 298.652344 244.683594 279.722656 270.703125 251.949219 275.085938 Z M 251.949219 275.085938 " fill-opacity="1" fill-rule="evenodd"/></g></g></g><g clip-path="url(#40a671a43e)"><g clip-path="url(#52c80bdb35)"><g clip-path="url(#91e0925bfe)"><path fill="#232e26" d="M 249.96875 262.515625 C 245.335938 263.246094 244.230469 256.210938 248.859375 255.480469 C 265.804688 252.808594 277.332031 236.945312 274.671875 220 C 273.945312 215.367188 280.976562 214.265625 281.707031 218.890625 C 284.984375 239.710938 270.792969 259.230469 249.96875 262.515625 Z M 249.96875 262.515625 " fill-opacity="1" fill-rule="evenodd"/></g></g></g><g clip-path="url(#7fedd55d11)"><g clip-path="url(#b99abf8bf3)"><g clip-path="url(#0904afe765)"><path fill="#232e26" d="M 186.542969 224.773438 C 185.644531 224.914062 184.6875 224.710938 183.890625 224.136719 L 124.90625 181.222656 C 117.472656 175.8125 115.824219 165.363281 121.230469 157.925781 L 142.566406 128.597656 C 147.972656 121.167969 158.433594 119.515625 165.863281 124.925781 L 224.851562 167.835938 C 226.441406 168.996094 226.792969 171.21875 225.636719 172.8125 L 188.871094 223.347656 C 188.289062 224.144531 187.441406 224.628906 186.542969 224.769531 Z M 154.566406 128.988281 C 152.035156 129.390625 149.820312 130.742188 148.328125 132.792969 L 126.988281 162.117188 C 123.890625 166.378906 124.835938 172.367188 129.09375 175.464844 L 185.203125 216.28125 L 217.777344 171.503906 L 161.671875 130.6875 C 159.621094 129.195312 157.097656 128.59375 154.566406 128.992188 Z M 154.566406 128.988281 " fill-opacity="1" fill-rule="evenodd"/></g></g></g><g clip-path="url(#c1522751bb)"><g clip-path="url(#b8bd4f9d25)"><g clip-path="url(#4e8d5dd6a6)"><path fill="#232e26" d="M 126.507812 161.015625 C 120.9375 161.894531 115.339844 146.878906 122.789062 136.636719 C 130.8125 125.613281 149.554688 127.253906 146.957031 134.433594 C 146.285156 136.285156 144.246094 137.246094 142.394531 136.574219 C 131.125 132.484375 121.417969 145.847656 128.761719 155.3125 C 130.4375 157.472656 129.148438 160.597656 126.507812 161.011719 Z M 126.507812 161.015625 " fill-opacity="1" fill-rule="evenodd"/></g></g></g><g clip-path="url(#5e4f49d5c3)"><g clip-path="url(#f6ddc7ecec)"><g clip-path="url(#2d493fd543)"><path fill="#232e26" d="M 201.175781 158.132812 C 200.277344 158.277344 199.320312 158.074219 198.523438 157.496094 L 182.578125 145.894531 C 180.984375 144.738281 180.636719 142.515625 181.792969 140.921875 L 192.195312 126.625 C 193.355469 125.035156 195.582031 124.683594 197.171875 125.839844 L 213.121094 137.445312 C 214.710938 138.601562 215.0625 140.828125 213.90625 142.417969 C 210.890625 146.558594 203.921875 157.699219 201.175781 158.132812 Z M 189.644531 142.230469 L 199.835938 149.644531 L 206.050781 141.105469 L 195.863281 133.695312 Z M 189.644531 142.230469 " fill-opacity="1" fill-rule="evenodd"/></g></g></g><g clip-path="url(#6899889506)"><g clip-path="url(#f71c328f3e)"><g clip-path="url(#5d2d0120b8)"><path fill="#232e26" d="M 231.386719 158.246094 C 230.488281 158.390625 229.53125 158.1875 228.734375 157.609375 L 173.167969 117.1875 C 171.578125 116.03125 171.222656 113.804688 172.382812 112.210938 L 246.816406 9.894531 C 247.929688 8.367188 250.261719 8 251.792969 9.109375 L 307.363281 49.539062 C 308.957031 50.695312 309.308594 52.921875 308.148438 54.511719 L 233.710938 156.828125 C 233.136719 157.621094 232.289062 158.105469 231.386719 158.246094 Z M 180.234375 113.523438 L 230.046875 149.757812 L 300.292969 53.199219 L 250.480469 16.960938 L 180.238281 113.523438 Z M 180.234375 113.523438 " fill-opacity="1" fill-rule="evenodd"/></g></g></g><g clip-path="url(#177fcc3941)"><g clip-path="url(#a667a10a96)"><g clip-path="url(#dcf3308514)"><path fill="#232e26" d="M 215.632812 146.789062 C 212.53125 147.28125 210.320312 143.757812 212.195312 141.179688 L 286.632812 38.859375 C 289.394531 35.066406 295.152344 39.257812 292.394531 43.046875 L 217.957031 145.367188 C 217.378906 146.164062 216.53125 146.648438 215.632812 146.789062 Z M 191.570312 129.28125 C 188.46875 129.773438 186.257812 126.25 188.132812 123.671875 L 262.570312 21.351562 C 265.328125 17.558594 271.089844 21.75 268.332031 25.539062 L 193.898438 127.859375 C 193.320312 128.65625 192.46875 129.140625 191.570312 129.28125 Z M 191.570312 129.28125 " fill-opacity="1" fill-rule="evenodd"/></g></g></g><g clip-path="url(#86c60f85ed)"><g clip-path="url(#c9f2afe001)"><g clip-path="url(#bcfa41546c)"><path fill="#232e26" d="M 240.738281 145.398438 C 239.839844 145.539062 238.886719 145.335938 238.089844 144.757812 L 182.515625 104.332031 C 178.722656 101.574219 182.917969 95.8125 186.710938 98.570312 L 242.28125 139 C 244.859375 140.871094 243.839844 144.90625 240.742188 145.394531 Z M 240.738281 145.398438 " fill-opacity="1" fill-rule="evenodd"/></g></g></g><g clip-path="url(#65b956a916)"><g clip-path="url(#f9b8f05f0b)"><g clip-path="url(#53f2712abf)"><path fill="#232e26" d="M 250.089844 132.546875 C 249.191406 132.6875 248.234375 132.484375 247.4375 131.90625 L 191.867188 91.476562 C 188.074219 88.71875 192.269531 82.957031 196.058594 85.71875 L 251.628906 126.144531 C 254.210938 128.019531 253.1875 132.058594 250.089844 132.546875 Z M 250.089844 132.546875 " fill-opacity="1" fill-rule="evenodd"/></g></g></g><g clip-path="url(#ac6382386c)"><g clip-path="url(#69873b3c4e)"><g clip-path="url(#0569971726)"><path fill="#232e26" d="M 259.4375 119.695312 C 258.539062 119.835938 257.582031 119.632812 256.789062 119.054688 L 201.21875 78.628906 C 197.421875 75.871094 201.621094 70.109375 205.410156 72.871094 L 260.980469 113.296875 C 263.558594 115.171875 262.539062 119.203125 259.441406 119.695312 Z M 259.4375 119.695312 " fill-opacity="1" fill-rule="evenodd"/></g></g></g><g clip-path="url(#93346a9987)"><g clip-path="url(#50f3b18323)"><g clip-path="url(#d7b153e5ac)"><path fill="#232e26" d="M 268.789062 106.839844 C 267.890625 106.980469 266.933594 106.78125 266.136719 106.203125 L 210.570312 65.777344 C 206.773438 63.019531 210.972656 57.257812 214.757812 60.015625 L 270.328125 100.445312 C 272.910156 102.320312 271.886719 106.351562 268.789062 106.839844 Z M 268.789062 106.839844 " fill-opacity="1" fill-rule="evenodd"/></g></g></g><g clip-path="url(#911f33ebd6)"><g clip-path="url(#cbf2c2122f)"><g clip-path="url(#174456e92b)"><path fill="#232e26" d="M 278.140625 93.988281 C 277.242188 94.128906 276.285156 93.929688 275.488281 93.351562 L 219.917969 52.921875 C 216.125 50.164062 220.320312 44.402344 224.109375 47.164062 L 279.679688 87.59375 C 282.257812 89.46875 281.238281 93.5 278.140625 93.988281 Z M 278.140625 93.988281 " fill-opacity="1" fill-rule="evenodd"/></g></g></g><g clip-path="url(#2908912dbe)"><g clip-path="url(#de78c4b278)"><g clip-path="url(#fcc7f86fc3)"><path fill="#232e26" d="M 287.488281 81.132812 C 286.589844 81.273438 285.632812 81.074219 284.835938 80.492188 L 229.265625 40.066406 C 225.472656 37.308594 229.667969 31.546875 233.457031 34.308594 L 289.027344 74.734375 C 291.601562 76.609375 290.589844 80.640625 287.488281 81.132812 Z M 287.488281 81.132812 " fill-opacity="1" fill-rule="evenodd"/></g></g></g><g clip-path="url(#0df5c708c6)"><g clip-path="url(#573426d373)"><g clip-path="url(#0444ef9d79)"><path fill="#232e26" d="M 296.839844 68.28125 C 295.941406 68.421875 294.984375 68.222656 294.1875 67.640625 L 238.617188 27.214844 C 234.824219 24.457031 239.019531 18.695312 242.808594 21.457031 L 298.378906 61.882812 C 300.953125 63.757812 299.9375 67.789062 296.839844 68.28125 Z M 296.839844 68.28125 " fill-opacity="1" fill-rule="evenodd"/></g></g></g><g clip-path="url(#3cf0e221a6)"><g clip-path="url(#5adf0d2ed5)"><g clip-path="url(#56f26e910d)"><path fill="#232e26" d="M 154.007812 222.96875 C 153.109375 223.113281 152.15625 222.910156 151.359375 222.332031 L 135.414062 210.730469 C 133.824219 209.566406 133.472656 207.34375 134.628906 205.75 L 145.03125 191.453125 C 146.1875 189.863281 148.417969 189.511719 150.003906 190.671875 L 165.949219 202.273438 C 167.539062 203.433594 167.890625 205.65625 166.734375 207.25 L 156.332031 221.546875 C 155.753906 222.34375 154.910156 222.828125 154.007812 222.96875 Z M 142.484375 207.066406 L 152.671875 214.480469 L 158.882812 205.941406 L 148.695312 198.527344 Z M 142.484375 207.066406 " fill-opacity="1" fill-rule="evenodd"/></g></g></g><g clip-path="url(#ffa5897847)"><g clip-path="url(#31e000795b)"><g clip-path="url(#30c9fd87ce)"><path fill="#232e26" d="M 99.382812 339.699219 C 98.480469 339.84375 97.527344 339.640625 96.734375 339.0625 L 41.164062 298.636719 C 39.574219 297.472656 39.222656 295.25 40.378906 293.65625 L 114.8125 191.339844 C 115.925781 189.816406 118.261719 189.445312 119.789062 190.554688 L 175.359375 230.980469 C 176.949219 232.140625 177.300781 234.367188 176.140625 235.957031 L 101.707031 338.277344 C 101.128906 339.078125 100.285156 339.558594 99.382812 339.703125 Z M 48.234375 294.972656 L 98.046875 331.207031 L 168.292969 234.652344 L 118.480469 198.410156 Z M 48.234375 294.972656 " fill-opacity="1" fill-rule="evenodd"/></g></g></g><g clip-path="url(#11ce52f742)"><g clip-path="url(#5b2243b314)"><g clip-path="url(#f59889420e)"><path fill="#232e26" d="M 83.632812 328.238281 C 80.53125 328.726562 78.324219 325.199219 80.199219 322.625 L 154.632812 220.304688 C 157.398438 216.507812 163.148438 220.710938 160.394531 224.496094 L 85.957031 326.816406 C 85.375 327.613281 84.53125 328.097656 83.632812 328.238281 Z M 59.570312 310.734375 C 56.46875 311.222656 54.257812 307.695312 56.132812 305.121094 L 130.570312 202.800781 C 133.332031 199.003906 139.085938 203.203125 136.328125 206.992188 L 61.890625 309.308594 C 61.3125 310.109375 60.46875 310.59375 59.570312 310.734375 Z M 59.570312 310.734375 " fill-opacity="1" fill-rule="evenodd"/></g></g></g><g clip-path="url(#de6369ea2b)"><g clip-path="url(#907e01d72f)"><g clip-path="url(#28aae5bbc5)"><path fill="#232e26" d="M 164.46875 250.234375 C 163.570312 250.378906 162.613281 250.175781 161.820312 249.597656 L 106.25 209.167969 C 102.453125 206.40625 106.652344 200.652344 110.4375 203.40625 L 166.007812 243.832031 C 168.589844 245.710938 167.5625 249.746094 164.46875 250.234375 Z M 164.46875 250.234375 " fill-opacity="1" fill-rule="evenodd"/></g></g></g><g clip-path="url(#ddf7208b13)"><g clip-path="url(#6ad9e29e9e)"><g clip-path="url(#00e89fbcf3)"><path fill="#232e26" d="M 155.121094 263.089844 C 154.21875 263.230469 153.265625 263.027344 152.472656 262.449219 L 96.902344 222.023438 C 93.105469 219.261719 97.300781 213.503906 101.089844 216.261719 L 156.660156 256.6875 C 159.238281 258.566406 158.214844 262.601562 155.121094 263.089844 Z M 155.121094 263.089844 " fill-opacity="1" fill-rule="evenodd"/></g></g></g><g clip-path="url(#f2a1ae473b)"><g clip-path="url(#ececce1f36)"><g clip-path="url(#0732c4debb)"><path fill="#232e26" d="M 145.769531 275.941406 C 144.871094 276.082031 143.914062 275.878906 143.121094 275.300781 L 87.550781 234.871094 C 83.757812 232.109375 87.953125 226.355469 91.738281 229.113281 L 147.308594 269.539062 C 149.890625 271.414062 148.867188 275.453125 145.773438 275.941406 Z M 145.769531 275.941406 " fill-opacity="1" fill-rule="evenodd"/></g></g></g><g clip-path="url(#49051a3f40)"><g clip-path="url(#4a627caaa9)"><g clip-path="url(#42a1472573)"><path fill="#232e26" d="M 136.421875 288.792969 C 135.519531 288.9375 134.566406 288.734375 133.773438 288.15625 L 78.203125 247.730469 C 74.40625 244.972656 78.597656 239.210938 82.390625 241.972656 L 137.960938 282.394531 C 140.535156 284.265625 139.527344 288.304688 136.421875 288.792969 Z M 136.421875 288.792969 " fill-opacity="1" fill-rule="evenodd"/></g></g></g><g clip-path="url(#0a367df4c7)"><g clip-path="url(#2675357357)"><g clip-path="url(#5ac9ad0ee2)"><path fill="#232e26" d="M 127.070312 301.640625 C 126.167969 301.785156 125.214844 301.582031 124.421875 301.003906 L 68.851562 260.578125 C 65.058594 257.820312 69.25 252.058594 73.042969 254.820312 L 128.609375 295.242188 C 131.1875 297.117188 130.175781 301.152344 127.070312 301.640625 Z M 127.070312 301.640625 " fill-opacity="1" fill-rule="evenodd"/></g></g></g><g clip-path="url(#4673c759a2)"><g clip-path="url(#0d17873652)"><g clip-path="url(#6b8fa93d5a)"><path fill="#232e26" d="M 117.71875 314.496094 C 116.820312 314.640625 115.863281 314.4375 115.070312 313.859375 L 59.5 273.433594 C 55.707031 270.671875 59.902344 264.914062 63.6875 267.671875 L 119.257812 308.097656 C 121.835938 309.972656 120.824219 314.007812 117.71875 314.496094 Z M 117.71875 314.496094 " fill-opacity="1" fill-rule="evenodd"/></g></g></g><g clip-path="url(#a6fbf8fd7a)"><g clip-path="url(#a38f3a5dad)"><g clip-path="url(#b1623bae1d)"><path fill="#232e26" d="M 108.371094 327.351562 C 107.46875 327.492188 106.515625 327.289062 105.722656 326.710938 L 50.148438 286.285156 C 46.355469 283.523438 50.546875 277.765625 54.339844 280.523438 L 109.910156 320.949219 C 112.484375 322.824219 111.472656 326.859375 108.371094 327.351562 Z M 108.371094 327.351562 " fill-opacity="1" fill-rule="evenodd"/></g></g></g><g clip-path="url(#855a64f36f)"><g clip-path="url(#b693a087d0)"><g clip-path="url(#1e0029c9d2)"><path fill="#232e26" d="M 209.363281 217.457031 C 205.050781 218.136719 199.800781 212.992188 194.699219 209.273438 C 193.109375 208.113281 192.757812 205.890625 193.914062 204.296875 L 209.058594 183.480469 C 212.042969 179.386719 217.765625 185.40625 223.605469 189.65625 C 226.65625 191.875 227.335938 196.160156 225.113281 199.210938 L 213.828125 214.722656 C 212.757812 216.203125 211.167969 217.171875 209.363281 217.457031 Z M 201.769531 205.609375 L 208.234375 210.3125 L 219.1875 195.253906 L 212.722656 190.550781 Z M 201.769531 205.609375 " fill-opacity="1" fill-rule="evenodd"/></g></g></g><g clip-path="url(#32d7887526)"><g clip-path="url(#6a870446cc)"><g clip-path="url(#ebac6eb33e)"><path fill="#232e26" d="M 223.949219 220.027344 C 221.371094 220.433594 214.945312 214.769531 211.316406 212.128906 C 207.519531 209.363281 211.71875 203.609375 215.507812 206.367188 L 225.488281 213.628906 C 228.066406 215.503906 227.054688 219.539062 223.949219 220.027344 Z M 230.308594 211.289062 C 227.730469 211.695312 221.304688 206.03125 217.675781 203.386719 C 213.875 200.625 218.078125 194.871094 221.867188 197.625 L 231.847656 204.886719 C 234.425781 206.765625 233.40625 210.796875 230.308594 211.285156 Z M 230.308594 211.289062 " fill-opacity="1" fill-rule="evenodd"/></g></g></g><g clip-path="url(#d6ef202e25)"><g clip-path="url(#4a9d727fbf)"><g clip-path="url(#dcedfa74f3)"><path fill="#232e26" d="M 224.714844 245.101562 C 219.390625 245.941406 208.671875 230.699219 217.894531 218.019531 L 229.496094 202.070312 C 239.773438 187.949219 261.5625 196.226562 256.722656 202.875 L 227.039062 243.679688 C 226.460938 244.472656 225.613281 244.960938 224.714844 245.101562 Z M 242.964844 201.5625 C 239.835938 202.058594 237.097656 203.726562 235.253906 206.265625 L 223.652344 222.210938 C 220.613281 226.386719 220.683594 232.054688 223.695312 236.164062 L 248.539062 202.011719 C 246.773438 201.421875 244.871094 201.261719 242.964844 201.5625 Z M 242.964844 201.5625 " fill-opacity="1" fill-rule="evenodd"/></g></g></g><g clip-path="url(#ebc6cc7964)"><g clip-path="url(#8cc5d6273d)"><g clip-path="url(#5e4158f144)"><path fill="#232e26" d="M 249.507812 231.941406 C 246.929688 232.347656 240.535156 226.699219 236.902344 224.058594 C 233.109375 221.300781 237.304688 215.539062 241.097656 218.296875 L 251.046875 225.539062 C 253.621094 227.414062 252.609375 231.449219 249.507812 231.941406 Z M 249.507812 231.941406 " fill-opacity="1" fill-rule="evenodd"/></g></g></g><g clip-path="url(#14f7d9c0d8)"><g clip-path="url(#b59a845680)"><g clip-path="url(#873e3339df)"><path fill="#232e26" d="M 256.722656 243.726562 C 242.355469 245.996094 238.917969 224.179688 253.28125 221.914062 C 267.652344 219.648438 271.09375 241.460938 256.722656 243.726562 Z M 254.390625 228.949219 C 250.957031 229.492188 249.875 233.9375 252.695312 235.988281 C 256.84375 239.007812 261.503906 232.703125 257.308594 229.652344 C 256.460938 229.03125 255.425781 228.785156 254.390625 228.945312 Z M 254.390625 228.949219 " fill-opacity="1" fill-rule="evenodd"/></g></g></g></g></g></g></g><g clip-path="url(#40efd1efc2)"><g mask="url(#2a9573a4fc)"><g transform="matrix(1, 0, 0, 1, 0, 1)"><g clip-path="url(#1cf9e6750e)"><g clip-path="url(#b44f337306)"><g clip-path="url(#9a7799767d)"><g clip-path="url(#0a7680d3a0)"><path fill="#232e26" d="M 253.933594 287.824219 C 249.300781 288.554688 248.195312 281.519531 252.824219 280.789062 C 283.648438 275.925781 304.667969 247.035156 299.804688 216.207031 C 299.074219 211.578125 306.109375 210.46875 306.839844 215.097656 C 312.316406 249.816406 288.652344 282.34375 253.933594 287.824219 Z M 253.933594 287.824219 " fill-opacity="1" fill-rule="evenodd"/></g></g></g><g clip-path="url(#c7e1c577eb)"><g clip-path="url(#a849f8fc4f)"><g clip-path="url(#138933179a)"><path fill="#232e26" d="M 251.949219 275.253906 C 247.320312 275.984375 246.210938 268.949219 250.839844 268.21875 C 274.722656 264.453125 291.003906 242.070312 287.238281 218.1875 C 286.507812 213.558594 293.542969 212.449219 294.273438 217.078125 C 298.652344 244.851562 279.722656 270.871094 251.949219 275.253906 Z M 251.949219 275.253906 " fill-opacity="1" fill-rule="evenodd"/></g></g></g><g clip-path="url(#40faf60c94)"><g clip-path="url(#d14c80ac5d)"><g clip-path="url(#86d699d39e)"><path fill="#232e26" d="M 249.96875 262.6875 C 245.335938 263.417969 244.230469 256.382812 248.859375 255.652344 C 265.804688 252.976562 277.332031 237.113281 274.671875 220.171875 C 273.945312 215.535156 280.976562 214.4375 281.707031 219.0625 C 284.984375 239.882812 270.792969 259.402344 249.96875 262.6875 Z M 249.96875 262.6875 " fill-opacity="1" fill-rule="evenodd"/></g></g></g><g clip-path="url(#1af4f65272)"><g clip-path="url(#af02fa0746)"><g clip-path="url(#fd369a4b03)"><path fill="#232e26" d="M 186.542969 224.941406 C 185.644531 225.085938 184.6875 224.882812 183.890625 224.304688 L 124.90625 181.390625 C 117.472656 175.980469 115.824219 165.53125 121.230469 158.097656 L 142.566406 128.769531 C 147.972656 121.339844 158.433594 119.6875 165.863281 125.09375 L 224.851562 168.003906 C 226.441406 169.164062 226.792969 171.386719 225.636719 172.980469 L 188.871094 223.519531 C 188.289062 224.316406 187.441406 224.800781 186.542969 224.941406 Z M 154.566406 129.160156 C 152.035156 129.558594 149.820312 130.910156 148.328125 132.960938 L 126.988281 162.289062 C 123.890625 166.546875 124.835938 172.535156 129.09375 175.636719 L 185.203125 216.453125 L 217.777344 171.671875 L 161.671875 130.855469 C 159.621094 129.363281 157.097656 128.761719 154.566406 129.160156 Z M 154.566406 129.160156 " fill-opacity="1" fill-rule="evenodd"/></g></g></g><g clip-path="url(#c624f40a68)"><g clip-path="url(#b466a601b2)"><g clip-path="url(#ceb48e4fd3)"><path fill="#232e26" d="M 126.507812 161.183594 C 120.9375 162.0625 115.339844 147.046875 122.789062 136.808594 C 130.8125 125.785156 149.554688 127.421875 146.957031 134.605469 C 146.285156 136.453125 144.246094 137.414062 142.394531 136.742188 C 131.125 132.65625 121.417969 146.015625 128.761719 155.484375 C 130.4375 157.640625 129.148438 160.765625 126.507812 161.183594 Z M 126.507812 161.183594 " fill-opacity="1" fill-rule="evenodd"/></g></g></g><g clip-path="url(#05d68ba927)"><g clip-path="url(#2ceccfd033)"><g clip-path="url(#fed9e20705)"><path fill="#232e26" d="M 201.175781 158.304688 C 200.277344 158.445312 199.320312 158.242188 198.523438 157.664062 L 182.578125 146.066406 C 180.984375 144.90625 180.636719 142.683594 181.792969 141.09375 L 192.195312 126.796875 C 193.355469 125.203125 195.582031 124.855469 197.171875 126.011719 L 213.121094 137.613281 C 214.710938 138.769531 215.0625 140.996094 213.90625 142.585938 C 210.890625 146.726562 203.921875 157.871094 201.175781 158.304688 Z M 189.644531 142.402344 L 199.835938 149.8125 L 206.050781 141.273438 L 195.863281 133.863281 Z M 189.644531 142.402344 " fill-opacity="1" fill-rule="evenodd"/></g></g></g><g clip-path="url(#2f9eda32e7)"><g clip-path="url(#42f2327f69)"><g clip-path="url(#eebadeede6)"><path fill="#232e26" d="M 231.386719 158.417969 C 230.488281 158.558594 229.53125 158.355469 228.734375 157.777344 L 173.167969 117.355469 C 171.578125 116.199219 171.222656 113.972656 172.382812 112.382812 L 246.816406 10.066406 C 247.929688 8.539062 250.261719 8.167969 251.792969 9.28125 L 307.363281 49.707031 C 308.957031 50.863281 309.308594 53.089844 308.148438 54.679688 L 233.710938 156.996094 C 233.136719 157.789062 232.289062 158.273438 231.386719 158.417969 Z M 180.234375 113.691406 L 230.046875 149.929688 L 300.292969 53.367188 L 250.480469 17.128906 L 180.238281 113.691406 Z M 180.234375 113.691406 " fill-opacity="1" fill-rule="evenodd"/></g></g></g><g clip-path="url(#4e04c4b2db)"><g clip-path="url(#9c840c3138)"><g clip-path="url(#7ef108d405)"><path fill="#232e26" d="M 215.632812 146.960938 C 212.53125 147.449219 210.320312 143.925781 212.195312 141.347656 L 286.632812 39.03125 C 289.394531 35.234375 295.152344 39.429688 292.394531 43.21875 L 217.957031 145.539062 C 217.378906 146.332031 216.53125 146.820312 215.632812 146.960938 Z M 191.570312 129.453125 C 188.46875 129.941406 186.257812 126.417969 188.132812 123.839844 L 262.570312 21.519531 C 265.328125 17.726562 271.089844 21.917969 268.332031 25.710938 L 193.898438 128.027344 C 193.320312 128.824219 192.46875 129.308594 191.570312 129.453125 Z M 191.570312 129.453125 " fill-opacity="1" fill-rule="evenodd"/></g></g></g><g clip-path="url(#8031deaa06)"><g clip-path="url(#acd09ada0c)"><g clip-path="url(#8ff32eddba)"><path fill="#232e26" d="M 240.738281 145.566406 C 239.839844 145.707031 238.886719 145.503906 238.089844 144.925781 L 182.515625 104.5 C 178.722656 101.742188 182.917969 95.980469 186.710938 98.742188 L 242.28125 139.167969 C 244.859375 141.042969 243.839844 145.074219 240.742188 145.5625 Z M 240.738281 145.566406 " fill-opacity="1" fill-rule="evenodd"/></g></g></g><g clip-path="url(#093625d9d8)"><g clip-path="url(#7d82643a4c)"><g clip-path="url(#a11a25c476)"><path fill="#232e26" d="M 250.089844 132.714844 C 249.191406 132.855469 248.234375 132.652344 247.4375 132.074219 L 191.867188 91.648438 C 188.074219 88.890625 192.269531 83.128906 196.058594 85.886719 L 251.628906 126.316406 C 254.210938 128.191406 253.1875 132.226562 250.089844 132.714844 Z M 250.089844 132.714844 " fill-opacity="1" fill-rule="evenodd"/></g></g></g><g clip-path="url(#66e08d50ff)"><g clip-path="url(#24bb41b246)"><g clip-path="url(#bbbd25cb1b)"><path fill="#232e26" d="M 259.4375 119.863281 C 258.539062 120.003906 257.582031 119.800781 256.789062 119.226562 L 201.21875 78.796875 C 197.421875 76.042969 201.621094 70.28125 205.410156 73.039062 L 260.980469 113.464844 C 263.558594 115.339844 262.539062 119.375 259.441406 119.863281 Z M 259.4375 119.863281 " fill-opacity="1" fill-rule="evenodd"/></g></g></g><g clip-path="url(#f9ba576174)"><g clip-path="url(#e9443a4727)"><g clip-path="url(#d8a199fada)"><path fill="#232e26" d="M 268.789062 107.007812 C 267.890625 107.152344 266.933594 106.949219 266.136719 106.371094 L 210.570312 65.945312 C 206.773438 63.1875 210.972656 57.425781 214.757812 60.1875 L 270.328125 100.613281 C 272.910156 102.488281 271.886719 106.519531 268.789062 107.007812 Z M 268.789062 107.007812 " fill-opacity="1" fill-rule="evenodd"/></g></g></g><g clip-path="url(#f30bd0717f)"><g clip-path="url(#254627544a)"><g clip-path="url(#cf9c8be70c)"><path fill="#232e26" d="M 278.140625 94.15625 C 277.242188 94.300781 276.285156 94.097656 275.488281 93.519531 L 219.917969 53.09375 C 216.125 50.335938 220.320312 44.574219 224.109375 47.332031 L 279.679688 87.761719 C 282.257812 89.636719 281.238281 93.667969 278.140625 94.15625 Z M 278.140625 94.15625 " fill-opacity="1" fill-rule="evenodd"/></g></g></g><g clip-path="url(#5caf673b98)"><g clip-path="url(#765db52041)"><g clip-path="url(#a7e10f6ac4)"><path fill="#232e26" d="M 287.488281 81.304688 C 286.589844 81.445312 285.632812 81.242188 284.835938 80.664062 L 229.265625 40.238281 C 225.472656 37.480469 229.667969 31.71875 233.457031 34.476562 L 289.027344 74.90625 C 291.601562 76.777344 290.589844 80.8125 287.488281 81.300781 Z M 287.488281 81.304688 " fill-opacity="1" fill-rule="evenodd"/></g></g></g><g clip-path="url(#bceae948e1)"><g clip-path="url(#ad59ff9d5f)"><g clip-path="url(#92c85e1e18)"><path fill="#232e26" d="M 296.839844 68.453125 C 295.941406 68.59375 294.984375 68.390625 294.1875 67.8125 L 238.617188 27.386719 C 234.824219 24.628906 239.019531 18.867188 242.808594 21.625 L 298.378906 62.054688 C 300.953125 63.925781 299.9375 67.960938 296.839844 68.449219 Z M 296.839844 68.453125 " fill-opacity="1" fill-rule="evenodd"/></g></g></g><g clip-path="url(#370f5219ad)"><g clip-path="url(#b64847c245)"><g clip-path="url(#f1047b6b73)"><path fill="#232e26" d="M 154.007812 223.140625 C 153.109375 223.28125 152.15625 223.078125 151.359375 222.5 L 135.414062 210.898438 C 133.824219 209.738281 133.472656 207.511719 134.628906 205.921875 L 145.03125 191.625 C 146.1875 190.03125 148.417969 189.679688 150.003906 190.839844 L 165.949219 202.441406 C 167.539062 203.601562 167.890625 205.828125 166.734375 207.417969 L 156.332031 221.714844 C 155.753906 222.511719 154.910156 222.996094 154.007812 223.140625 Z M 142.484375 207.234375 L 152.671875 214.648438 L 158.882812 206.109375 L 148.695312 198.695312 Z M 142.484375 207.234375 " fill-opacity="1" fill-rule="evenodd"/></g></g></g><g clip-path="url(#0834082cb7)"><g clip-path="url(#704a45f911)"><g clip-path="url(#abba46d437)"><path fill="#232e26" d="M 99.382812 339.871094 C 98.480469 340.011719 97.527344 339.808594 96.734375 339.230469 L 41.164062 298.804688 C 39.574219 297.644531 39.222656 295.417969 40.378906 293.828125 L 114.8125 191.511719 C 115.925781 189.984375 118.261719 189.617188 119.789062 190.726562 L 175.359375 231.152344 C 176.949219 232.308594 177.300781 234.539062 176.140625 236.128906 L 101.707031 338.445312 C 101.128906 339.246094 100.285156 339.730469 99.382812 339.871094 Z M 48.234375 295.140625 L 98.046875 331.378906 L 168.292969 234.820312 L 118.480469 198.578125 Z M 48.234375 295.140625 " fill-opacity="1" fill-rule="evenodd"/></g></g></g><g clip-path="url(#f91addc373)"><g clip-path="url(#aed500a83d)"><g clip-path="url(#bf1d997ecd)"><path fill="#232e26" d="M 83.632812 328.410156 C 80.53125 328.898438 78.324219 325.367188 80.199219 322.792969 L 154.632812 220.472656 C 157.398438 216.675781 163.148438 220.878906 160.394531 224.667969 L 85.957031 326.984375 C 85.375 327.78125 84.53125 328.265625 83.632812 328.410156 Z M 59.570312 310.902344 C 56.46875 311.394531 54.257812 307.863281 56.132812 305.289062 L 130.570312 202.96875 C 133.332031 199.171875 139.085938 203.375 136.328125 207.160156 L 61.890625 309.480469 C 61.3125 310.277344 60.46875 310.761719 59.570312 310.902344 Z M 59.570312 310.902344 " fill-opacity="1" fill-rule="evenodd"/></g></g></g><g clip-path="url(#0eac7e2fd6)"><g clip-path="url(#bfa0598197)"><g clip-path="url(#7cc7cf3b36)"><path fill="#232e26" d="M 164.46875 250.40625 C 163.570312 250.546875 162.613281 250.34375 161.820312 249.765625 L 106.25 209.339844 C 102.453125 206.578125 106.652344 200.820312 110.4375 203.578125 L 166.007812 244.003906 C 168.589844 245.878906 167.5625 249.917969 164.46875 250.40625 Z M 164.46875 250.40625 " fill-opacity="1" fill-rule="evenodd"/></g></g></g><g clip-path="url(#b1a9e80df6)"><g clip-path="url(#e8837b2efe)"><g clip-path="url(#c1b07423cf)"><path fill="#232e26" d="M 155.121094 263.257812 C 154.21875 263.398438 153.265625 263.199219 152.472656 262.621094 L 96.902344 222.191406 C 93.105469 219.429688 97.300781 213.671875 101.089844 216.433594 L 156.660156 256.859375 C 159.238281 258.734375 158.214844 262.773438 155.121094 263.261719 Z M 155.121094 263.257812 " fill-opacity="1" fill-rule="evenodd"/></g></g></g><g clip-path="url(#d407d55a8a)"><g clip-path="url(#56aaa3a408)"><g clip-path="url(#edf4362680)"><path fill="#232e26" d="M 145.769531 276.109375 C 144.871094 276.25 143.914062 276.050781 143.121094 275.46875 L 87.550781 235.042969 C 83.757812 232.28125 87.953125 226.523438 91.738281 229.28125 L 147.308594 269.707031 C 149.890625 271.585938 148.867188 275.621094 145.773438 276.109375 Z M 145.769531 276.109375 " fill-opacity="1" fill-rule="evenodd"/></g></g></g><g clip-path="url(#c5b9575370)"><g clip-path="url(#cd9b4e3cac)"><g clip-path="url(#94e45f9556)"><path fill="#232e26" d="M 136.421875 288.964844 C 135.519531 289.105469 134.566406 288.902344 133.773438 288.324219 L 78.203125 247.898438 C 74.40625 245.140625 78.597656 239.378906 82.390625 242.140625 L 137.960938 282.5625 C 140.535156 284.4375 139.527344 288.472656 136.421875 288.964844 Z M 136.421875 288.964844 " fill-opacity="1" fill-rule="evenodd"/></g></g></g><g clip-path="url(#a648ec6d49)"><g clip-path="url(#98c4f7d1f9)"><g clip-path="url(#2768b1b51e)"><path fill="#232e26" d="M 127.070312 301.8125 C 126.167969 301.953125 125.214844 301.75 124.421875 301.171875 L 68.851562 260.746094 C 65.058594 257.988281 69.25 252.230469 73.042969 254.988281 L 128.609375 295.410156 C 131.1875 297.285156 130.175781 301.320312 127.070312 301.8125 Z M 127.070312 301.8125 " fill-opacity="1" fill-rule="evenodd"/></g></g></g><g clip-path="url(#93da3cb24e)"><g clip-path="url(#8c3328ff87)"><g clip-path="url(#846f363e8e)"><path fill="#232e26" d="M 117.71875 314.667969 C 116.820312 314.808594 115.863281 314.605469 115.070312 314.027344 L 59.5 273.601562 C 55.707031 270.839844 59.902344 265.082031 63.6875 267.839844 L 119.257812 308.265625 C 121.835938 310.140625 120.824219 314.175781 117.71875 314.667969 Z M 117.71875 314.667969 " fill-opacity="1" fill-rule="evenodd"/></g></g></g><g clip-path="url(#f004f1c081)"><g clip-path="url(#d871a71ad0)"><g clip-path="url(#a0f03c8a16)"><path fill="#232e26" d="M 108.371094 327.519531 C 107.46875 327.664062 106.515625 327.460938 105.722656 326.878906 L 50.148438 286.453125 C 46.355469 283.695312 50.546875 277.933594 54.339844 280.695312 L 109.910156 321.121094 C 112.484375 322.992188 111.472656 327.03125 108.371094 327.519531 Z M 108.371094 327.519531 " fill-opacity="1" fill-rule="evenodd"/></g></g></g><g clip-path="url(#d0ade8156e)"><g clip-path="url(#01a73a8ced)"><g clip-path="url(#12753cf03f)"><path fill="#232e26" d="M 209.363281 217.625 C 205.050781 218.304688 199.800781 213.160156 194.699219 209.445312 C 193.109375 208.285156 192.757812 206.058594 193.914062 204.464844 L 209.058594 183.648438 C 212.042969 179.554688 217.765625 185.578125 223.605469 189.828125 C 226.65625 192.046875 227.335938 196.332031 225.113281 199.382812 L 213.828125 214.894531 C 212.757812 216.371094 211.167969 217.339844 209.363281 217.625 Z M 201.769531 205.78125 L 208.234375 210.480469 L 219.1875 195.421875 L 212.722656 190.722656 Z M 201.769531 205.78125 " fill-opacity="1" fill-rule="evenodd"/></g></g></g><g clip-path="url(#d201f02cc0)"><g clip-path="url(#9484dd519d)"><g clip-path="url(#daca8d4377)"><path fill="#232e26" d="M 223.949219 220.195312 C 221.371094 220.605469 214.945312 214.9375 211.316406 212.296875 C 207.519531 209.535156 211.71875 203.777344 215.507812 206.535156 L 225.488281 213.800781 C 228.066406 215.671875 227.054688 219.710938 223.949219 220.199219 Z M 230.308594 211.457031 C 227.730469 211.863281 221.304688 206.199219 217.675781 203.558594 C 213.875 200.796875 218.078125 195.039062 221.867188 197.796875 L 231.847656 205.058594 C 234.425781 206.933594 233.40625 210.96875 230.308594 211.457031 Z M 230.308594 211.457031 " fill-opacity="1" fill-rule="evenodd"/></g></g></g><g clip-path="url(#cec311b582)"><g clip-path="url(#7564db0374)"><g clip-path="url(#392c9ce14d)"><path fill="#232e26" d="M 224.714844 245.269531 C 219.390625 246.109375 208.671875 230.867188 217.894531 218.1875 L 229.496094 202.242188 C 239.773438 188.117188 261.5625 196.394531 256.722656 203.042969 L 227.039062 243.847656 C 226.460938 244.644531 225.613281 245.128906 224.714844 245.273438 Z M 242.964844 201.734375 C 239.835938 202.226562 237.097656 203.894531 235.253906 206.433594 L 223.652344 222.382812 C 220.613281 226.554688 220.683594 232.226562 223.695312 236.335938 L 248.539062 202.183594 C 246.773438 201.589844 244.871094 201.429688 242.964844 201.730469 Z M 242.964844 201.734375 " fill-opacity="1" fill-rule="evenodd"/></g></g></g><g clip-path="url(#0c96facce8)"><g clip-path="url(#e9a5042f68)"><g clip-path="url(#5b4d736645)"><path fill="#232e26" d="M 249.507812 232.109375 C 246.929688 232.515625 240.535156 226.871094 236.902344 224.230469 C 233.109375 221.46875 237.304688 215.707031 241.097656 218.46875 L 251.046875 225.710938 C 253.621094 227.582031 252.609375 231.621094 249.507812 232.109375 Z M 249.507812 232.109375 " fill-opacity="1" fill-rule="evenodd"/></g></g></g><g clip-path="url(#5ec1181a55)"><g clip-path="url(#39f91cfc82)"><g clip-path="url(#ba0273a578)"><path fill="#232e26" d="M 256.722656 243.898438 C 242.355469 246.164062 238.917969 224.351562 253.28125 222.082031 C 267.652344 219.816406 271.09375 241.632812 256.722656 243.898438 Z M 254.390625 229.117188 C 250.957031 229.660156 249.875 234.109375 252.695312 236.160156 C 256.84375 239.179688 261.503906 232.871094 257.308594 229.820312 C 256.460938 229.203125 255.425781 228.953125 254.390625 229.117188 Z M 254.390625 229.117188 " fill-opacity="1" fill-rule="evenodd"/></g></g></g></g></g></g></g></svg>