<svg xmlns="http://www.w3.org/2000/svg" xmlns:xlink="http://www.w3.org/1999/xlink" width="466" zoomAndPan="magnify" viewBox="0 0 349.5 348.749994" height="465" preserveAspectRatio="xMidYMid meet" version="1.0"><defs><filter x="0%" y="0%" width="100%" height="100%" id="05cf77e633"><feColorMatrix values="0 0 0 0 1 0 0 0 0 1 0 0 0 0 1 0 0 0 1 0" color-interpolation-filters="sRGB"/></filter><clipPath id="75d4b697f6"><path d="M 0 0.125 L 349 0.125 L 349 348.375 L 0 348.375 Z M 0 0.125 " clip-rule="nonzero"/></clipPath><mask id="0f412b8577"><g filter="url(#05cf77e633)"><rect x="-34.95" width="419.4" fill="#000000" y="-34.874999" height="418.499993" fill-opacity="0.32"/></g></mask><clipPath id="7fb80e2b46"><path d="M 249 212 L 308 212 L 308 289 L 249 289 Z M 249 212 " clip-rule="nonzero"/></clipPath><clipPath id="8bec660c63"><path d="M 0 47.613281 L 301.089844 0.117188 L 348.472656 300.46875 L 47.378906 347.964844 Z M 0 47.613281 " clip-rule="nonzero"/></clipPath><clipPath id="7435b2c77e"><path d="M 0 47.613281 L 301.089844 0.117188 L 348.472656 300.46875 L 47.378906 347.964844 Z M 0 47.613281 " clip-rule="nonzero"/></clipPath><clipPath id="b7f0c792d1"><path d="M 247 214 L 295 214 L 295 276 L 247 276 Z M 247 214 " clip-rule="nonzero"/></clipPath><clipPath id="c6cae51160"><path d="M 0 47.613281 L 301.089844 0.117188 L 348.472656 300.46875 L 47.378906 347.964844 Z M 0 47.613281 " clip-rule="nonzero"/></clipPath><clipPath id="28be419851"><path d="M 0 47.613281 L 301.089844 0.117188 L 348.472656 300.46875 L 47.378906 347.964844 Z M 0 47.613281 " clip-rule="nonzero"/></clipPath><clipPath id="8ed64738de"><path d="M 245 216 L 283 216 L 283 263 L 245 263 Z M 245 216 " clip-rule="nonzero"/></clipPath><clipPath id="b43cd461fe"><path d="M 0 47.613281 L 301.089844 0.117188 L 348.472656 300.46875 L 47.378906 347.964844 Z M 0 47.613281 " clip-rule="nonzero"/></clipPath><clipPath id="ebb748d77c"><path d="M 0 47.613281 L 301.089844 0.117188 L 348.472656 300.46875 L 47.378906 347.964844 Z M 0 47.613281 " clip-rule="nonzero"/></clipPath><clipPath id="e399647ee0"><path d="M 118 121 L 227 121 L 227 226 L 118 226 Z M 118 121 " clip-rule="nonzero"/></clipPath><clipPath id="6ac1020b27"><path d="M 0 47.613281 L 301.089844 0.117188 L 348.472656 300.46875 L 47.378906 347.964844 Z M 0 47.613281 " clip-rule="nonzero"/></clipPath><clipPath id="9fd7bfc6e4"><path d="M 0 47.613281 L 301.089844 0.117188 L 348.472656 300.46875 L 47.378906 347.964844 Z M 0 47.613281 " clip-rule="nonzero"/></clipPath><clipPath id="fdf5dd06f3"><path d="M 119 128 L 148 128 L 148 162 L 119 162 Z M 119 128 " clip-rule="nonzero"/></clipPath><clipPath id="0bc26414c8"><path d="M 0 47.613281 L 301.089844 0.117188 L 348.472656 300.46875 L 47.378906 347.964844 Z M 0 47.613281 " clip-rule="nonzero"/></clipPath><clipPath id="8d23429c81"><path d="M 0 47.613281 L 301.089844 0.117188 L 348.472656 300.46875 L 47.378906 347.964844 Z M 0 47.613281 " clip-rule="nonzero"/></clipPath><clipPath id="6e9c124f73"><path d="M 181 125 L 215 125 L 215 159 L 181 159 Z M 181 125 " clip-rule="nonzero"/></clipPath><clipPath id="6e7cdf4df3"><path d="M 0 47.613281 L 301.089844 0.117188 L 348.472656 300.46875 L 47.378906 347.964844 Z M 0 47.613281 " clip-rule="nonzero"/></clipPath><clipPath id="45c8bc367d"><path d="M 0 47.613281 L 301.089844 0.117188 L 348.472656 300.46875 L 47.378906 347.964844 Z M 0 47.613281 " clip-rule="nonzero"/></clipPath><clipPath id="e0ff5bf252"><path d="M 171 8 L 309 8 L 309 159 L 171 159 Z M 171 8 " clip-rule="nonzero"/></clipPath><clipPath id="4891800140"><path d="M 0 47.613281 L 301.089844 0.117188 L 348.472656 300.46875 L 47.378906 347.964844 Z M 0 47.613281 " clip-rule="nonzero"/></clipPath><clipPath id="108dde464b"><path d="M 0 47.613281 L 301.089844 0.117188 L 348.472656 300.46875 L 47.378906 347.964844 Z M 0 47.613281 " clip-rule="nonzero"/></clipPath><clipPath id="9d68cb971a"><path d="M 187 20 L 294 20 L 294 148 L 187 148 Z M 187 20 " clip-rule="nonzero"/></clipPath><clipPath id="eb35fce34a"><path d="M 0 47.613281 L 301.089844 0.117188 L 348.472656 300.46875 L 47.378906 347.964844 Z M 0 47.613281 " clip-rule="nonzero"/></clipPath><clipPath id="173f53d827"><path d="M 0 47.613281 L 301.089844 0.117188 L 348.472656 300.46875 L 47.378906 347.964844 Z M 0 47.613281 " clip-rule="nonzero"/></clipPath><clipPath id="16d446c519"><path d="M 181 98 L 244 98 L 244 146 L 181 146 Z M 181 98 " clip-rule="nonzero"/></clipPath><clipPath id="3c0b85dd44"><path d="M 0 47.613281 L 301.089844 0.117188 L 348.472656 300.46875 L 47.378906 347.964844 Z M 0 47.613281 " clip-rule="nonzero"/></clipPath><clipPath id="c0cdaeae68"><path d="M 0 47.613281 L 301.089844 0.117188 L 348.472656 300.46875 L 47.378906 347.964844 Z M 0 47.613281 " clip-rule="nonzero"/></clipPath><clipPath id="f96abb6293"><path d="M 190 85 L 254 85 L 254 133 L 190 133 Z M 190 85 " clip-rule="nonzero"/></clipPath><clipPath id="432844674e"><path d="M 0 47.613281 L 301.089844 0.117188 L 348.472656 300.46875 L 47.378906 347.964844 Z M 0 47.613281 " clip-rule="nonzero"/></clipPath><clipPath id="422a8d3cfa"><path d="M 0 47.613281 L 301.089844 0.117188 L 348.472656 300.46875 L 47.378906 347.964844 Z M 0 47.613281 " clip-rule="nonzero"/></clipPath><clipPath id="9af29befc2"><path d="M 199 72 L 263 72 L 263 120 L 199 120 Z M 199 72 " clip-rule="nonzero"/></clipPath><clipPath id="7c8b7ec79a"><path d="M 0 47.613281 L 301.089844 0.117188 L 348.472656 300.46875 L 47.378906 347.964844 Z M 0 47.613281 " clip-rule="nonzero"/></clipPath><clipPath id="dd6dbace5f"><path d="M 0 47.613281 L 301.089844 0.117188 L 348.472656 300.46875 L 47.378906 347.964844 Z M 0 47.613281 " clip-rule="nonzero"/></clipPath><clipPath id="e7d9f68f41"><path d="M 209 59 L 272 59 L 272 108 L 209 108 Z M 209 59 " clip-rule="nonzero"/></clipPath><clipPath id="d39b66e4fc"><path d="M 0 47.613281 L 301.089844 0.117188 L 348.472656 300.46875 L 47.378906 347.964844 Z M 0 47.613281 " clip-rule="nonzero"/></clipPath><clipPath id="3eb8bf1e67"><path d="M 0 47.613281 L 301.089844 0.117188 L 348.472656 300.46875 L 47.378906 347.964844 Z M 0 47.613281 " clip-rule="nonzero"/></clipPath><clipPath id="c04ce9eed9"><path d="M 218 46 L 282 46 L 282 95 L 218 95 Z M 218 46 " clip-rule="nonzero"/></clipPath><clipPath id="deb1fdfefb"><path d="M 0 47.613281 L 301.089844 0.117188 L 348.472656 300.46875 L 47.378906 347.964844 Z M 0 47.613281 " clip-rule="nonzero"/></clipPath><clipPath id="c0430255a0"><path d="M 0 47.613281 L 301.089844 0.117188 L 348.472656 300.46875 L 47.378906 347.964844 Z M 0 47.613281 " clip-rule="nonzero"/></clipPath><clipPath id="a1b107ef9b"><path d="M 227 33 L 291 33 L 291 82 L 227 82 Z M 227 33 " clip-rule="nonzero"/></clipPath><clipPath id="a24395ea8f"><path d="M 0 47.613281 L 301.089844 0.117188 L 348.472656 300.46875 L 47.378906 347.964844 Z M 0 47.613281 " clip-rule="nonzero"/></clipPath><clipPath id="a784b5bef6"><path d="M 0 47.613281 L 301.089844 0.117188 L 348.472656 300.46875 L 47.378906 347.964844 Z M 0 47.613281 " clip-rule="nonzero"/></clipPath><clipPath id="677fac2212"><path d="M 237 20 L 300 20 L 300 69 L 237 69 Z M 237 20 " clip-rule="nonzero"/></clipPath><clipPath id="bfbf6f31fb"><path d="M 0 47.613281 L 301.089844 0.117188 L 348.472656 300.46875 L 47.378906 347.964844 Z M 0 47.613281 " clip-rule="nonzero"/></clipPath><clipPath id="ba9384b63f"><path d="M 0 47.613281 L 301.089844 0.117188 L 348.472656 300.46875 L 47.378906 347.964844 Z M 0 47.613281 " clip-rule="nonzero"/></clipPath><clipPath id="71b5b4f661"><path d="M 133 190 L 168 190 L 168 224 L 133 224 Z M 133 190 " clip-rule="nonzero"/></clipPath><clipPath id="0a8fa3bb77"><path d="M 0 47.613281 L 301.089844 0.117188 L 348.472656 300.46875 L 47.378906 347.964844 Z M 0 47.613281 " clip-rule="nonzero"/></clipPath><clipPath id="906ab42910"><path d="M 0 47.613281 L 301.089844 0.117188 L 348.472656 300.46875 L 47.378906 347.964844 Z M 0 47.613281 " clip-rule="nonzero"/></clipPath><clipPath id="2c6939824d"><path d="M 39 190 L 177 190 L 177 341 L 39 341 Z M 39 190 " clip-rule="nonzero"/></clipPath><clipPath id="8dd158228e"><path d="M 0 47.613281 L 301.089844 0.117188 L 348.472656 300.46875 L 47.378906 347.964844 Z M 0 47.613281 " clip-rule="nonzero"/></clipPath><clipPath id="1e4d08bc8b"><path d="M 0 47.613281 L 301.089844 0.117188 L 348.472656 300.46875 L 47.378906 347.964844 Z M 0 47.613281 " clip-rule="nonzero"/></clipPath><clipPath id="09ec81b967"><path d="M 55 201 L 162 201 L 162 329 L 55 329 Z M 55 201 " clip-rule="nonzero"/></clipPath><clipPath id="2de0d12562"><path d="M 0 47.613281 L 301.089844 0.117188 L 348.472656 300.46875 L 47.378906 347.964844 Z M 0 47.613281 " clip-rule="nonzero"/></clipPath><clipPath id="18f2fd04c7"><path d="M 0 47.613281 L 301.089844 0.117188 L 348.472656 300.46875 L 47.378906 347.964844 Z M 0 47.613281 " clip-rule="nonzero"/></clipPath><clipPath id="9fd16a4ba1"><path d="M 104 202 L 168 202 L 168 251 L 104 251 Z M 104 202 " clip-rule="nonzero"/></clipPath><clipPath id="715986c40d"><path d="M 0 47.613281 L 301.089844 0.117188 L 348.472656 300.46875 L 47.378906 347.964844 Z M 0 47.613281 " clip-rule="nonzero"/></clipPath><clipPath id="a3b8be52e1"><path d="M 0 47.613281 L 301.089844 0.117188 L 348.472656 300.46875 L 47.378906 347.964844 Z M 0 47.613281 " clip-rule="nonzero"/></clipPath><clipPath id="f1c0098b1d"><path d="M 95 215 L 159 215 L 159 264 L 95 264 Z M 95 215 " clip-rule="nonzero"/></clipPath><clipPath id="2225ce03fd"><path d="M 0 47.613281 L 301.089844 0.117188 L 348.472656 300.46875 L 47.378906 347.964844 Z M 0 47.613281 " clip-rule="nonzero"/></clipPath><clipPath id="37d9b8496f"><path d="M 0 47.613281 L 301.089844 0.117188 L 348.472656 300.46875 L 47.378906 347.964844 Z M 0 47.613281 " clip-rule="nonzero"/></clipPath><clipPath id="35405db46b"><path d="M 85 228 L 149 228 L 149 277 L 85 277 Z M 85 228 " clip-rule="nonzero"/></clipPath><clipPath id="a621e8a388"><path d="M 0 47.613281 L 301.089844 0.117188 L 348.472656 300.46875 L 47.378906 347.964844 Z M 0 47.613281 " clip-rule="nonzero"/></clipPath><clipPath id="9032c00074"><path d="M 0 47.613281 L 301.089844 0.117188 L 348.472656 300.46875 L 47.378906 347.964844 Z M 0 47.613281 " clip-rule="nonzero"/></clipPath><clipPath id="2f98c5ab5e"><path d="M 76 241 L 140 241 L 140 290 L 76 290 Z M 76 241 " clip-rule="nonzero"/></clipPath><clipPath id="b437dd402c"><path d="M 0 47.613281 L 301.089844 0.117188 L 348.472656 300.46875 L 47.378906 347.964844 Z M 0 47.613281 " clip-rule="nonzero"/></clipPath><clipPath id="4cc8081f46"><path d="M 0 47.613281 L 301.089844 0.117188 L 348.472656 300.46875 L 47.378906 347.964844 Z M 0 47.613281 " clip-rule="nonzero"/></clipPath><clipPath id="5430b2effd"><path d="M 67 254 L 131 254 L 131 303 L 67 303 Z M 67 254 " clip-rule="nonzero"/></clipPath><clipPath id="8651069479"><path d="M 0 47.613281 L 301.089844 0.117188 L 348.472656 300.46875 L 47.378906 347.964844 Z M 0 47.613281 " clip-rule="nonzero"/></clipPath><clipPath id="3da8e46b85"><path d="M 0 47.613281 L 301.089844 0.117188 L 348.472656 300.46875 L 47.378906 347.964844 Z M 0 47.613281 " clip-rule="nonzero"/></clipPath><clipPath id="109d38039e"><path d="M 57 267 L 121 267 L 121 315 L 57 315 Z M 57 267 " clip-rule="nonzero"/></clipPath><clipPath id="aa1564dcfc"><path d="M 0 47.613281 L 301.089844 0.117188 L 348.472656 300.46875 L 47.378906 347.964844 Z M 0 47.613281 " clip-rule="nonzero"/></clipPath><clipPath id="d395f378d2"><path d="M 0 47.613281 L 301.089844 0.117188 L 348.472656 300.46875 L 47.378906 347.964844 Z M 0 47.613281 " clip-rule="nonzero"/></clipPath><clipPath id="cb8f0d11e1"><path d="M 48 280 L 112 280 L 112 328 L 48 328 Z M 48 280 " clip-rule="nonzero"/></clipPath><clipPath id="3cedeaacd1"><path d="M 0 47.613281 L 301.089844 0.117188 L 348.472656 300.46875 L 47.378906 347.964844 Z M 0 47.613281 " clip-rule="nonzero"/></clipPath><clipPath id="8550a656c1"><path d="M 0 47.613281 L 301.089844 0.117188 L 348.472656 300.46875 L 47.378906 347.964844 Z M 0 47.613281 " clip-rule="nonzero"/></clipPath><clipPath id="2d311e32f3"><path d="M 193 182 L 227 182 L 227 218 L 193 218 Z M 193 182 " clip-rule="nonzero"/></clipPath><clipPath id="b57c716b11"><path d="M 0 47.613281 L 301.089844 0.117188 L 348.472656 300.46875 L 47.378906 347.964844 Z M 0 47.613281 " clip-rule="nonzero"/></clipPath><clipPath id="9a50445201"><path d="M 0 47.613281 L 301.089844 0.117188 L 348.472656 300.46875 L 47.378906 347.964844 Z M 0 47.613281 " clip-rule="nonzero"/></clipPath><clipPath id="3e58773553"><path d="M 209 197 L 234 197 L 234 221 L 209 221 Z M 209 197 " clip-rule="nonzero"/></clipPath><clipPath id="c7e263f4f8"><path d="M 0 47.613281 L 301.089844 0.117188 L 348.472656 300.46875 L 47.378906 347.964844 Z M 0 47.613281 " clip-rule="nonzero"/></clipPath><clipPath id="e20cc58ae9"><path d="M 0 47.613281 L 301.089844 0.117188 L 348.472656 300.46875 L 47.378906 347.964844 Z M 0 47.613281 " clip-rule="nonzero"/></clipPath><clipPath id="a32c724a0c"><path d="M 214 194 L 258 194 L 258 246 L 214 246 Z M 214 194 " clip-rule="nonzero"/></clipPath><clipPath id="75a96773d0"><path d="M 0 47.613281 L 301.089844 0.117188 L 348.472656 300.46875 L 47.378906 347.964844 Z M 0 47.613281 " clip-rule="nonzero"/></clipPath><clipPath id="88a6cb397f"><path d="M 0 47.613281 L 301.089844 0.117188 L 348.472656 300.46875 L 47.378906 347.964844 Z M 0 47.613281 " clip-rule="nonzero"/></clipPath><clipPath id="9039ddef01"><path d="M 235 217 L 253 217 L 253 233 L 235 233 Z M 235 217 " clip-rule="nonzero"/></clipPath><clipPath id="5fe48803bf"><path d="M 0 47.613281 L 301.089844 0.117188 L 348.472656 300.46875 L 47.378906 347.964844 Z M 0 47.613281 " clip-rule="nonzero"/></clipPath><clipPath id="39bf72d4a6"><path d="M 0 47.613281 L 301.089844 0.117188 L 348.472656 300.46875 L 47.378906 347.964844 Z M 0 47.613281 " clip-rule="nonzero"/></clipPath><clipPath id="3135c8edae"><path d="M 244 222 L 266 222 L 266 245 L 244 245 Z M 244 222 " clip-rule="nonzero"/></clipPath><clipPath id="7ff8cc6c6f"><path d="M 0 47.613281 L 301.089844 0.117188 L 348.472656 300.46875 L 47.378906 347.964844 Z M 0 47.613281 " clip-rule="nonzero"/></clipPath><clipPath id="45f9a469c1"><path d="M 0 47.613281 L 301.089844 0.117188 L 348.472656 300.46875 L 47.378906 347.964844 Z M 0 47.613281 " clip-rule="nonzero"/></clipPath><clipPath id="07eb30b862"><rect x="0" width="349" y="0" height="349"/></clipPath><mask id="a12080daa5"><g filter="url(#05cf77e633)"><rect x="-34.95" width="419.4" fill="#000000" y="-34.874999" height="418.499993" fill-opacity="0.32"/></g></mask><clipPath id="de3e3487ef"><path d="M 249 212 L 308 212 L 308 289 L 249 289 Z M 249 212 " clip-rule="nonzero"/></clipPath><clipPath id="cb046af672"><path d="M 0 47.613281 L 301.089844 0.117188 L 348.472656 300.46875 L 47.378906 347.964844 Z M 0 47.613281 " clip-rule="nonzero"/></clipPath><clipPath id="9d864598bc"><path d="M 0 47.613281 L 301.089844 0.117188 L 348.472656 300.46875 L 47.378906 347.964844 Z M 0 47.613281 " clip-rule="nonzero"/></clipPath><clipPath id="1b575f0103"><path d="M 247 214 L 295 214 L 295 276 L 247 276 Z M 247 214 " clip-rule="nonzero"/></clipPath><clipPath id="73ebedbe94"><path d="M 0 47.613281 L 301.089844 0.117188 L 348.472656 300.46875 L 47.378906 347.964844 Z M 0 47.613281 " clip-rule="nonzero"/></clipPath><clipPath id="b2e9ae785c"><path d="M 0 47.613281 L 301.089844 0.117188 L 348.472656 300.46875 L 47.378906 347.964844 Z M 0 47.613281 " clip-rule="nonzero"/></clipPath><clipPath id="713b544b87"><path d="M 245 216 L 283 216 L 283 263 L 245 263 Z M 245 216 " clip-rule="nonzero"/></clipPath><clipPath id="450133f4bc"><path d="M 0 47.613281 L 301.089844 0.117188 L 348.472656 300.46875 L 47.378906 347.964844 Z M 0 47.613281 " clip-rule="nonzero"/></clipPath><clipPath id="d4a9e8dce1"><path d="M 0 47.613281 L 301.089844 0.117188 L 348.472656 300.46875 L 47.378906 347.964844 Z M 0 47.613281 " clip-rule="nonzero"/></clipPath><clipPath id="b491838ac5"><path d="M 118 121 L 227 121 L 227 226 L 118 226 Z M 118 121 " clip-rule="nonzero"/></clipPath><clipPath id="a34849c76d"><path d="M 0 47.613281 L 301.089844 0.117188 L 348.472656 300.46875 L 47.378906 347.964844 Z M 0 47.613281 " clip-rule="nonzero"/></clipPath><clipPath id="38f751c659"><path d="M 0 47.613281 L 301.089844 0.117188 L 348.472656 300.46875 L 47.378906 347.964844 Z M 0 47.613281 " clip-rule="nonzero"/></clipPath><clipPath id="8f497e9f42"><path d="M 119 128 L 148 128 L 148 162 L 119 162 Z M 119 128 " clip-rule="nonzero"/></clipPath><clipPath id="8ea5d43d24"><path d="M 0 47.613281 L 301.089844 0.117188 L 348.472656 300.46875 L 47.378906 347.964844 Z M 0 47.613281 " clip-rule="nonzero"/></clipPath><clipPath id="daeff7c8de"><path d="M 0 47.613281 L 301.089844 0.117188 L 348.472656 300.46875 L 47.378906 347.964844 Z M 0 47.613281 " clip-rule="nonzero"/></clipPath><clipPath id="20cd2b6e02"><path d="M 181 125 L 215 125 L 215 159 L 181 159 Z M 181 125 " clip-rule="nonzero"/></clipPath><clipPath id="15b5c1da91"><path d="M 0 47.613281 L 301.089844 0.117188 L 348.472656 300.46875 L 47.378906 347.964844 Z M 0 47.613281 " clip-rule="nonzero"/></clipPath><clipPath id="2da5e2dedc"><path d="M 0 47.613281 L 301.089844 0.117188 L 348.472656 300.46875 L 47.378906 347.964844 Z M 0 47.613281 " clip-rule="nonzero"/></clipPath><clipPath id="c90d8e9000"><path d="M 171 8 L 309 8 L 309 159 L 171 159 Z M 171 8 " clip-rule="nonzero"/></clipPath><clipPath id="1cad68232e"><path d="M 0 47.613281 L 301.089844 0.117188 L 348.472656 300.46875 L 47.378906 347.964844 Z M 0 47.613281 " clip-rule="nonzero"/></clipPath><clipPath id="14c1da9f76"><path d="M 0 47.613281 L 301.089844 0.117188 L 348.472656 300.46875 L 47.378906 347.964844 Z M 0 47.613281 " clip-rule="nonzero"/></clipPath><clipPath id="04caa4ba25"><path d="M 187 20 L 294 20 L 294 148 L 187 148 Z M 187 20 " clip-rule="nonzero"/></clipPath><clipPath id="9847c010b6"><path d="M 0 47.613281 L 301.089844 0.117188 L 348.472656 300.46875 L 47.378906 347.964844 Z M 0 47.613281 " clip-rule="nonzero"/></clipPath><clipPath id="3542d3cdbe"><path d="M 0 47.613281 L 301.089844 0.117188 L 348.472656 300.46875 L 47.378906 347.964844 Z M 0 47.613281 " clip-rule="nonzero"/></clipPath><clipPath id="fb2b885f13"><path d="M 181 98 L 244 98 L 244 146 L 181 146 Z M 181 98 " clip-rule="nonzero"/></clipPath><clipPath id="a292b0ae63"><path d="M 0 47.613281 L 301.089844 0.117188 L 348.472656 300.46875 L 47.378906 347.964844 Z M 0 47.613281 " clip-rule="nonzero"/></clipPath><clipPath id="ac94b74ce9"><path d="M 0 47.613281 L 301.089844 0.117188 L 348.472656 300.46875 L 47.378906 347.964844 Z M 0 47.613281 " clip-rule="nonzero"/></clipPath><clipPath id="80ac4dd130"><path d="M 190 85 L 254 85 L 254 133 L 190 133 Z M 190 85 " clip-rule="nonzero"/></clipPath><clipPath id="0e608891cc"><path d="M 0 47.613281 L 301.089844 0.117188 L 348.472656 300.46875 L 47.378906 347.964844 Z M 0 47.613281 " clip-rule="nonzero"/></clipPath><clipPath id="90f626409d"><path d="M 0 47.613281 L 301.089844 0.117188 L 348.472656 300.46875 L 47.378906 347.964844 Z M 0 47.613281 " clip-rule="nonzero"/></clipPath><clipPath id="de24267e65"><path d="M 199 72 L 263 72 L 263 120 L 199 120 Z M 199 72 " clip-rule="nonzero"/></clipPath><clipPath id="eadab19283"><path d="M 0 47.613281 L 301.089844 0.117188 L 348.472656 300.46875 L 47.378906 347.964844 Z M 0 47.613281 " clip-rule="nonzero"/></clipPath><clipPath id="21a24130bf"><path d="M 0 47.613281 L 301.089844 0.117188 L 348.472656 300.46875 L 47.378906 347.964844 Z M 0 47.613281 " clip-rule="nonzero"/></clipPath><clipPath id="391a083734"><path d="M 209 59 L 272 59 L 272 108 L 209 108 Z M 209 59 " clip-rule="nonzero"/></clipPath><clipPath id="90f5bdb11d"><path d="M 0 47.613281 L 301.089844 0.117188 L 348.472656 300.46875 L 47.378906 347.964844 Z M 0 47.613281 " clip-rule="nonzero"/></clipPath><clipPath id="f270168adf"><path d="M 0 47.613281 L 301.089844 0.117188 L 348.472656 300.46875 L 47.378906 347.964844 Z M 0 47.613281 " clip-rule="nonzero"/></clipPath><clipPath id="2ee3f690a4"><path d="M 218 46 L 282 46 L 282 95 L 218 95 Z M 218 46 " clip-rule="nonzero"/></clipPath><clipPath id="77f4f0be83"><path d="M 0 47.613281 L 301.089844 0.117188 L 348.472656 300.46875 L 47.378906 347.964844 Z M 0 47.613281 " clip-rule="nonzero"/></clipPath><clipPath id="fab34ac796"><path d="M 0 47.613281 L 301.089844 0.117188 L 348.472656 300.46875 L 47.378906 347.964844 Z M 0 47.613281 " clip-rule="nonzero"/></clipPath><clipPath id="d147341798"><path d="M 227 33 L 291 33 L 291 82 L 227 82 Z M 227 33 " clip-rule="nonzero"/></clipPath><clipPath id="aea3aa775d"><path d="M 0 47.613281 L 301.089844 0.117188 L 348.472656 300.46875 L 47.378906 347.964844 Z M 0 47.613281 " clip-rule="nonzero"/></clipPath><clipPath id="8970c72b84"><path d="M 0 47.613281 L 301.089844 0.117188 L 348.472656 300.46875 L 47.378906 347.964844 Z M 0 47.613281 " clip-rule="nonzero"/></clipPath><clipPath id="e850f868de"><path d="M 237 20 L 300 20 L 300 69 L 237 69 Z M 237 20 " clip-rule="nonzero"/></clipPath><clipPath id="c396012a4c"><path d="M 0 47.613281 L 301.089844 0.117188 L 348.472656 300.46875 L 47.378906 347.964844 Z M 0 47.613281 " clip-rule="nonzero"/></clipPath><clipPath id="2f56ab032e"><path d="M 0 47.613281 L 301.089844 0.117188 L 348.472656 300.46875 L 47.378906 347.964844 Z M 0 47.613281 " clip-rule="nonzero"/></clipPath><clipPath id="928aa26221"><path d="M 133 190 L 168 190 L 168 224 L 133 224 Z M 133 190 " clip-rule="nonzero"/></clipPath><clipPath id="5da611e36b"><path d="M 0 47.613281 L 301.089844 0.117188 L 348.472656 300.46875 L 47.378906 347.964844 Z M 0 47.613281 " clip-rule="nonzero"/></clipPath><clipPath id="a1e4dcd4bf"><path d="M 0 47.613281 L 301.089844 0.117188 L 348.472656 300.46875 L 47.378906 347.964844 Z M 0 47.613281 " clip-rule="nonzero"/></clipPath><clipPath id="f8c0fad30a"><path d="M 39 190 L 177 190 L 177 341 L 39 341 Z M 39 190 " clip-rule="nonzero"/></clipPath><clipPath id="921b8a4d17"><path d="M 0 47.613281 L 301.089844 0.117188 L 348.472656 300.46875 L 47.378906 347.964844 Z M 0 47.613281 " clip-rule="nonzero"/></clipPath><clipPath id="27dea5e66f"><path d="M 0 47.613281 L 301.089844 0.117188 L 348.472656 300.46875 L 47.378906 347.964844 Z M 0 47.613281 " clip-rule="nonzero"/></clipPath><clipPath id="680535b0eb"><path d="M 55 201 L 162 201 L 162 329 L 55 329 Z M 55 201 " clip-rule="nonzero"/></clipPath><clipPath id="59c306f3cf"><path d="M 0 47.613281 L 301.089844 0.117188 L 348.472656 300.46875 L 47.378906 347.964844 Z M 0 47.613281 " clip-rule="nonzero"/></clipPath><clipPath id="bfa92c0eb2"><path d="M 0 47.613281 L 301.089844 0.117188 L 348.472656 300.46875 L 47.378906 347.964844 Z M 0 47.613281 " clip-rule="nonzero"/></clipPath><clipPath id="aaaab1e5c0"><path d="M 104 202 L 168 202 L 168 251 L 104 251 Z M 104 202 " clip-rule="nonzero"/></clipPath><clipPath id="4b1b0c7d1c"><path d="M 0 47.613281 L 301.089844 0.117188 L 348.472656 300.46875 L 47.378906 347.964844 Z M 0 47.613281 " clip-rule="nonzero"/></clipPath><clipPath id="25a8ef47a6"><path d="M 0 47.613281 L 301.089844 0.117188 L 348.472656 300.46875 L 47.378906 347.964844 Z M 0 47.613281 " clip-rule="nonzero"/></clipPath><clipPath id="127c2ac2f3"><path d="M 95 215 L 159 215 L 159 264 L 95 264 Z M 95 215 " clip-rule="nonzero"/></clipPath><clipPath id="095f22c708"><path d="M 0 47.613281 L 301.089844 0.117188 L 348.472656 300.46875 L 47.378906 347.964844 Z M 0 47.613281 " clip-rule="nonzero"/></clipPath><clipPath id="85a418504a"><path d="M 0 47.613281 L 301.089844 0.117188 L 348.472656 300.46875 L 47.378906 347.964844 Z M 0 47.613281 " clip-rule="nonzero"/></clipPath><clipPath id="e1514a2881"><path d="M 85 228 L 149 228 L 149 277 L 85 277 Z M 85 228 " clip-rule="nonzero"/></clipPath><clipPath id="c24e6d0b0c"><path d="M 0 47.613281 L 301.089844 0.117188 L 348.472656 300.46875 L 47.378906 347.964844 Z M 0 47.613281 " clip-rule="nonzero"/></clipPath><clipPath id="2602b114d4"><path d="M 0 47.613281 L 301.089844 0.117188 L 348.472656 300.46875 L 47.378906 347.964844 Z M 0 47.613281 " clip-rule="nonzero"/></clipPath><clipPath id="5b5e58564e"><path d="M 76 241 L 140 241 L 140 290 L 76 290 Z M 76 241 " clip-rule="nonzero"/></clipPath><clipPath id="ddf1a5b6f4"><path d="M 0 47.613281 L 301.089844 0.117188 L 348.472656 300.46875 L 47.378906 347.964844 Z M 0 47.613281 " clip-rule="nonzero"/></clipPath><clipPath id="c892be3a64"><path d="M 0 47.613281 L 301.089844 0.117188 L 348.472656 300.46875 L 47.378906 347.964844 Z M 0 47.613281 " clip-rule="nonzero"/></clipPath><clipPath id="0fadcaeeee"><path d="M 67 254 L 131 254 L 131 303 L 67 303 Z M 67 254 " clip-rule="nonzero"/></clipPath><clipPath id="d15af00c49"><path d="M 0 47.613281 L 301.089844 0.117188 L 348.472656 300.46875 L 47.378906 347.964844 Z M 0 47.613281 " clip-rule="nonzero"/></clipPath><clipPath id="426c2357e9"><path d="M 0 47.613281 L 301.089844 0.117188 L 348.472656 300.46875 L 47.378906 347.964844 Z M 0 47.613281 " clip-rule="nonzero"/></clipPath><clipPath id="745577a3f1"><path d="M 57 267 L 121 267 L 121 315 L 57 315 Z M 57 267 " clip-rule="nonzero"/></clipPath><clipPath id="f37ada3933"><path d="M 0 47.613281 L 301.089844 0.117188 L 348.472656 300.46875 L 47.378906 347.964844 Z M 0 47.613281 " clip-rule="nonzero"/></clipPath><clipPath id="262932c30f"><path d="M 0 47.613281 L 301.089844 0.117188 L 348.472656 300.46875 L 47.378906 347.964844 Z M 0 47.613281 " clip-rule="nonzero"/></clipPath><clipPath id="b298a8b054"><path d="M 48 280 L 112 280 L 112 328 L 48 328 Z M 48 280 " clip-rule="nonzero"/></clipPath><clipPath id="53b93d5cb7"><path d="M 0 47.613281 L 301.089844 0.117188 L 348.472656 300.46875 L 47.378906 347.964844 Z M 0 47.613281 " clip-rule="nonzero"/></clipPath><clipPath id="64e9aa265e"><path d="M 0 47.613281 L 301.089844 0.117188 L 348.472656 300.46875 L 47.378906 347.964844 Z M 0 47.613281 " clip-rule="nonzero"/></clipPath><clipPath id="75b9f78921"><path d="M 193 182 L 227 182 L 227 218 L 193 218 Z M 193 182 " clip-rule="nonzero"/></clipPath><clipPath id="a353ce8aa7"><path d="M 0 47.613281 L 301.089844 0.117188 L 348.472656 300.46875 L 47.378906 347.964844 Z M 0 47.613281 " clip-rule="nonzero"/></clipPath><clipPath id="776466e917"><path d="M 0 47.613281 L 301.089844 0.117188 L 348.472656 300.46875 L 47.378906 347.964844 Z M 0 47.613281 " clip-rule="nonzero"/></clipPath><clipPath id="0b09cc132e"><path d="M 209 197 L 234 197 L 234 221 L 209 221 Z M 209 197 " clip-rule="nonzero"/></clipPath><clipPath id="c236504d23"><path d="M 0 47.613281 L 301.089844 0.117188 L 348.472656 300.46875 L 47.378906 347.964844 Z M 0 47.613281 " clip-rule="nonzero"/></clipPath><clipPath id="d094c507ec"><path d="M 0 47.613281 L 301.089844 0.117188 L 348.472656 300.46875 L 47.378906 347.964844 Z M 0 47.613281 " clip-rule="nonzero"/></clipPath><clipPath id="ed557a0137"><path d="M 214 194 L 258 194 L 258 246 L 214 246 Z M 214 194 " clip-rule="nonzero"/></clipPath><clipPath id="f788f3d970"><path d="M 0 47.613281 L 301.089844 0.117188 L 348.472656 300.46875 L 47.378906 347.964844 Z M 0 47.613281 " clip-rule="nonzero"/></clipPath><clipPath id="e95206c524"><path d="M 0 47.613281 L 301.089844 0.117188 L 348.472656 300.46875 L 47.378906 347.964844 Z M 0 47.613281 " clip-rule="nonzero"/></clipPath><clipPath id="d733f22648"><path d="M 235 217 L 253 217 L 253 233 L 235 233 Z M 235 217 " clip-rule="nonzero"/></clipPath><clipPath id="497682cde9"><path d="M 0 47.613281 L 301.089844 0.117188 L 348.472656 300.46875 L 47.378906 347.964844 Z M 0 47.613281 " clip-rule="nonzero"/></clipPath><clipPath id="ebe1a2959b"><path d="M 0 47.613281 L 301.089844 0.117188 L 348.472656 300.46875 L 47.378906 347.964844 Z M 0 47.613281 " clip-rule="nonzero"/></clipPath><clipPath id="48496ed2b9"><path d="M 244 222 L 266 222 L 266 245 L 244 245 Z M 244 222 " clip-rule="nonzero"/></clipPath><clipPath id="9e27814679"><path d="M 0 47.613281 L 301.089844 0.117188 L 348.472656 300.46875 L 47.378906 347.964844 Z M 0 47.613281 " clip-rule="nonzero"/></clipPath><clipPath id="d162f393fd"><path d="M 0 47.613281 L 301.089844 0.117188 L 348.472656 300.46875 L 47.378906 347.964844 Z M 0 47.613281 " clip-rule="nonzero"/></clipPath><clipPath id="73e5eb0a7c"><rect x="0" width="349" y="0" height="349"/></clipPath></defs><g clip-path="url(#75d4b697f6)"><g mask="url(#0f412b8577)"><g transform="matrix(1, 0, 0, 1, 0, 0.000000000000003053)"><g clip-path="url(#07eb30b862)"><g clip-path="url(#7fb80e2b46)"><g clip-path="url(#8bec660c63)"><g clip-path="url(#7435b2c77e)"><path fill="#d8efdd" d="M 253.988281 287.980469 C 249.355469 288.710938 248.246094 281.671875 252.878906 280.941406 C 283.726562 276.074219 304.757812 247.164062 299.894531 216.316406 C 299.160156 211.683594 306.203125 210.574219 306.933594 215.207031 C 312.414062 249.949219 288.734375 282.5 253.988281 287.980469 Z M 253.988281 287.980469 " fill-opacity="1" fill-rule="evenodd"/></g></g></g><g clip-path="url(#b7f0c792d1)"><g clip-path="url(#c6cae51160)"><g clip-path="url(#28be419851)"><path fill="#d8efdd" d="M 252.003906 275.402344 C 247.371094 276.132812 246.261719 269.09375 250.894531 268.363281 C 274.792969 264.59375 291.089844 242.195312 287.316406 218.296875 C 286.585938 213.664062 293.625 212.554688 294.355469 217.1875 C 298.742188 244.980469 279.796875 271.019531 252.003906 275.402344 Z M 252.003906 275.402344 " fill-opacity="1" fill-rule="evenodd"/></g></g></g><g clip-path="url(#8ed64738de)"><g clip-path="url(#b43cd461fe)"><g clip-path="url(#ebb748d77c)"><path fill="#d8efdd" d="M 250.019531 262.828125 C 245.386719 263.558594 244.277344 256.519531 248.910156 255.789062 C 265.871094 253.113281 277.40625 237.238281 274.742188 220.28125 C 274.015625 215.644531 281.054688 214.542969 281.785156 219.171875 C 285.066406 240.003906 270.859375 259.539062 250.019531 262.828125 Z M 250.019531 262.828125 " fill-opacity="1" fill-rule="evenodd"/></g></g></g><g clip-path="url(#e399647ee0)"><g clip-path="url(#6ac1020b27)"><g clip-path="url(#9fd7bfc6e4)"><path fill="#d8efdd" d="M 186.550781 225.058594 C 185.652344 225.199219 184.695312 224.996094 183.898438 224.417969 L 124.871094 181.472656 C 117.433594 176.0625 115.78125 165.601562 121.195312 158.164062 L 142.542969 128.816406 C 147.953125 121.378906 158.421875 119.726562 165.855469 125.136719 L 224.886719 168.078125 C 226.480469 169.238281 226.832031 171.464844 225.671875 173.058594 L 188.878906 223.628906 C 188.300781 224.429688 187.453125 224.914062 186.550781 225.054688 Z M 154.550781 129.207031 C 152.019531 129.605469 149.804688 130.957031 148.308594 133.007812 L 126.953125 162.359375 C 123.855469 166.621094 124.800781 172.613281 129.0625 175.714844 L 185.207031 216.5625 L 217.808594 171.75 L 161.664062 130.902344 C 159.609375 129.410156 157.085938 128.808594 154.554688 129.207031 Z M 154.550781 129.207031 " fill-opacity="1" fill-rule="evenodd"/></g></g></g><g clip-path="url(#fdf5dd06f3)"><g clip-path="url(#0bc26414c8)"><g clip-path="url(#8d23429c81)"><path fill="#d8efdd" d="M 126.476562 161.253906 C 120.898438 162.132812 115.296875 147.105469 122.75 136.859375 C 130.78125 125.828125 149.539062 127.46875 146.9375 134.65625 C 146.265625 136.503906 144.222656 137.46875 142.371094 136.792969 C 131.09375 132.703125 121.382812 146.074219 128.730469 155.550781 C 130.40625 157.707031 129.113281 160.835938 126.472656 161.25 Z M 126.476562 161.253906 " fill-opacity="1" fill-rule="evenodd"/></g></g></g><g clip-path="url(#6e9c124f73)"><g clip-path="url(#6e7cdf4df3)"><g clip-path="url(#45c8bc367d)"><path fill="#d8efdd" d="M 201.195312 158.371094 C 200.292969 158.511719 199.335938 158.308594 198.542969 157.730469 L 182.582031 146.125 C 180.992188 144.964844 180.640625 142.738281 181.796875 141.148438 L 192.207031 126.839844 C 193.371094 125.25 195.597656 124.898438 197.1875 126.054688 L 213.148438 137.664062 C 214.742188 138.824219 215.089844 141.050781 213.933594 142.640625 C 210.917969 146.785156 203.941406 157.9375 201.195312 158.371094 Z M 189.65625 142.457031 L 199.855469 149.875 L 206.074219 141.328125 L 195.875 133.914062 Z M 189.65625 142.457031 " fill-opacity="1" fill-rule="evenodd"/></g></g></g><g clip-path="url(#e0ff5bf252)"><g clip-path="url(#4891800140)"><g clip-path="url(#108dde464b)"><path fill="#d8efdd" d="M 231.425781 158.484375 C 230.527344 158.625 229.570312 158.421875 228.773438 157.84375 L 173.164062 117.394531 C 171.574219 116.234375 171.222656 114.011719 172.378906 112.417969 L 246.867188 10.027344 C 247.980469 8.496094 250.316406 8.128906 251.847656 9.242188 L 307.457031 49.699219 C 309.050781 50.855469 309.402344 53.082031 308.242188 54.675781 L 233.753906 157.0625 C 233.175781 157.855469 232.328125 158.339844 231.429688 158.484375 Z M 180.238281 113.726562 L 230.085938 149.988281 L 300.382812 53.359375 L 250.535156 17.097656 L 180.242188 113.726562 Z M 180.238281 113.726562 " fill-opacity="1" fill-rule="evenodd"/></g></g></g><g clip-path="url(#9d68cb971a)"><g clip-path="url(#eb35fce34a)"><g clip-path="url(#173f53d827)"><path fill="#d8efdd" d="M 215.660156 147.019531 C 212.558594 147.507812 210.347656 143.984375 212.222656 141.402344 L 286.714844 39.011719 C 289.472656 35.214844 295.238281 39.410156 292.476562 43.203125 L 217.988281 145.59375 C 217.40625 146.390625 216.5625 146.878906 215.660156 147.019531 Z M 191.582031 129.5 C 188.480469 129.988281 186.265625 126.460938 188.144531 123.882812 L 262.632812 21.492188 C 265.394531 17.695312 271.160156 21.890625 268.398438 25.683594 L 193.910156 128.074219 C 193.332031 128.871094 192.484375 129.355469 191.582031 129.5 Z M 191.582031 129.5 " fill-opacity="1" fill-rule="evenodd"/></g></g></g><g clip-path="url(#16d446c519)"><g clip-path="url(#3c0b85dd44)"><g clip-path="url(#c0cdaeae68)"><path fill="#d8efdd" d="M 240.785156 145.625 C 239.886719 145.765625 238.929688 145.5625 238.132812 144.984375 L 182.523438 104.527344 C 178.726562 101.769531 182.925781 96.003906 186.71875 98.765625 L 242.328125 139.222656 C 244.90625 141.097656 243.890625 145.132812 240.789062 145.621094 Z M 240.785156 145.625 " fill-opacity="1" fill-rule="evenodd"/></g></g></g><g clip-path="url(#f96abb6293)"><g clip-path="url(#432844674e)"><g clip-path="url(#422a8d3cfa)"><path fill="#d8efdd" d="M 250.144531 132.761719 C 249.242188 132.90625 248.285156 132.703125 247.488281 132.125 L 191.878906 91.667969 C 188.082031 88.90625 192.28125 83.140625 196.074219 85.902344 L 251.683594 126.359375 C 254.265625 128.234375 253.242188 132.273438 250.144531 132.761719 Z M 250.144531 132.761719 " fill-opacity="1" fill-rule="evenodd"/></g></g></g><g clip-path="url(#9af29befc2)"><g clip-path="url(#7c8b7ec79a)"><g clip-path="url(#dd6dbace5f)"><path fill="#d8efdd" d="M 259.5 119.902344 C 258.597656 120.042969 257.640625 119.84375 256.847656 119.265625 L 201.238281 78.808594 C 197.4375 76.050781 201.640625 70.285156 205.433594 73.046875 L 261.042969 113.5 C 263.621094 115.375 262.601562 119.414062 259.5 119.902344 Z M 259.5 119.902344 " fill-opacity="1" fill-rule="evenodd"/></g></g></g><g clip-path="url(#e7d9f68f41)"><g clip-path="url(#d39b66e4fc)"><g clip-path="url(#3eb8bf1e67)"><path fill="#d8efdd" d="M 268.855469 107.039062 C 267.957031 107.183594 267 106.980469 266.203125 106.402344 L 210.59375 65.945312 C 206.796875 63.1875 210.996094 57.421875 214.789062 60.183594 L 270.398438 100.640625 C 272.976562 102.515625 271.957031 106.550781 268.855469 107.039062 Z M 268.855469 107.039062 " fill-opacity="1" fill-rule="evenodd"/></g></g></g><g clip-path="url(#c04ce9eed9)"><g clip-path="url(#deb1fdfefb)"><g clip-path="url(#c0430255a0)"><path fill="#d8efdd" d="M 278.210938 94.179688 C 277.3125 94.320312 276.355469 94.117188 275.558594 93.542969 L 219.949219 53.085938 C 216.152344 50.324219 220.351562 44.558594 224.144531 47.320312 L 279.753906 87.777344 C 282.335938 89.65625 281.3125 93.691406 278.210938 94.179688 Z M 278.210938 94.179688 " fill-opacity="1" fill-rule="evenodd"/></g></g></g><g clip-path="url(#a1b107ef9b)"><g clip-path="url(#a24395ea8f)"><g clip-path="url(#a784b5bef6)"><path fill="#d8efdd" d="M 287.566406 81.316406 C 286.667969 81.457031 285.710938 81.253906 284.914062 80.675781 L 229.304688 40.21875 C 225.507812 37.460938 229.707031 31.695312 233.5 34.457031 L 289.109375 74.914062 C 291.683594 76.785156 290.671875 80.824219 287.566406 81.3125 Z M 287.566406 81.316406 " fill-opacity="1" fill-rule="evenodd"/></g></g></g><g clip-path="url(#677fac2212)"><g clip-path="url(#bfbf6f31fb)"><g clip-path="url(#ba9384b63f)"><path fill="#d8efdd" d="M 296.925781 68.453125 C 296.027344 68.597656 295.070312 68.394531 294.273438 67.8125 L 238.664062 27.359375 C 234.867188 24.597656 239.066406 18.835938 242.859375 21.597656 L 298.464844 62.050781 C 301.042969 63.925781 300.027344 67.964844 296.925781 68.453125 Z M 296.925781 68.453125 " fill-opacity="1" fill-rule="evenodd"/></g></g></g><g clip-path="url(#71b5b4f661)"><g clip-path="url(#0a8fa3bb77)"><g clip-path="url(#906ab42910)"><path fill="#d8efdd" d="M 153.996094 223.253906 C 153.09375 223.394531 152.136719 223.191406 151.34375 222.613281 L 135.386719 211.003906 C 133.796875 209.839844 133.441406 207.613281 134.601562 206.023438 L 145.007812 191.714844 C 146.167969 190.121094 148.398438 189.769531 149.984375 190.929688 L 165.945312 202.539062 C 167.535156 203.703125 167.886719 205.929688 166.730469 207.519531 L 156.320312 221.828125 C 155.742188 222.625 154.894531 223.109375 153.996094 223.253906 Z M 142.460938 207.335938 L 152.65625 214.757812 L 158.875 206.210938 L 148.675781 198.789062 Z M 142.460938 207.335938 " fill-opacity="1" fill-rule="evenodd"/></g></g></g><g clip-path="url(#2c6939824d)"><g clip-path="url(#8dd158228e)"><g clip-path="url(#1e4d08bc8b)"><path fill="#d8efdd" d="M 99.332031 340.066406 C 98.425781 340.207031 97.472656 340.003906 96.679688 339.425781 L 41.070312 298.972656 C 39.476562 297.808594 39.125 295.582031 40.285156 293.992188 L 114.773438 191.601562 C 115.882812 190.074219 118.222656 189.707031 119.75 190.816406 L 175.359375 231.269531 C 176.953125 232.429688 177.304688 234.660156 176.144531 236.25 L 101.652344 338.640625 C 101.074219 339.441406 100.230469 339.925781 99.328125 340.066406 Z M 48.144531 295.304688 L 97.992188 331.566406 L 168.289062 234.941406 L 118.441406 198.675781 Z M 48.144531 295.304688 " fill-opacity="1" fill-rule="evenodd"/></g></g></g><g clip-path="url(#09ec81b967)"><g clip-path="url(#2de0d12562)"><g clip-path="url(#18f2fd04c7)"><path fill="#d8efdd" d="M 83.566406 328.597656 C 80.464844 329.085938 78.253906 325.554688 80.132812 322.976562 L 154.621094 220.585938 C 157.382812 216.785156 163.140625 220.992188 160.382812 224.78125 L 85.894531 327.171875 C 85.3125 327.96875 84.46875 328.453125 83.566406 328.597656 Z M 59.488281 311.078125 C 56.382812 311.570312 54.171875 308.035156 56.050781 305.460938 L 130.539062 203.066406 C 133.300781 199.269531 139.0625 203.472656 136.300781 207.261719 L 61.8125 309.652344 C 61.234375 310.453125 60.386719 310.9375 59.488281 311.078125 Z M 59.488281 311.078125 " fill-opacity="1" fill-rule="evenodd"/></g></g></g><g clip-path="url(#9fd16a4ba1)"><g clip-path="url(#715986c40d)"><g clip-path="url(#a3b8be52e1)"><path fill="#d8efdd" d="M 164.460938 250.539062 C 163.5625 250.679688 162.605469 250.476562 161.8125 249.898438 L 106.203125 209.441406 C 102.402344 206.679688 106.601562 200.917969 110.394531 203.675781 L 166.003906 244.132812 C 168.582031 246.007812 167.558594 250.050781 164.460938 250.539062 Z M 164.460938 250.539062 " fill-opacity="1" fill-rule="evenodd"/></g></g></g><g clip-path="url(#f1c0098b1d)"><g clip-path="url(#2225ce03fd)"><g clip-path="url(#37d9b8496f)"><path fill="#d8efdd" d="M 155.105469 263.398438 C 154.207031 263.542969 153.25 263.339844 152.457031 262.761719 L 96.847656 222.304688 C 93.046875 219.539062 97.246094 213.78125 101.039062 216.539062 L 156.648438 256.996094 C 159.226562 258.875 158.203125 262.914062 155.105469 263.402344 Z M 155.105469 263.398438 " fill-opacity="1" fill-rule="evenodd"/></g></g></g><g clip-path="url(#35405db46b)"><g clip-path="url(#a621e8a388)"><g clip-path="url(#9032c00074)"><path fill="#d8efdd" d="M 145.75 276.261719 C 144.847656 276.402344 143.894531 276.199219 143.097656 275.621094 L 87.488281 235.164062 C 83.691406 232.398438 87.890625 226.636719 91.679688 229.398438 L 147.289062 269.855469 C 149.871094 271.730469 148.847656 275.773438 145.753906 276.261719 Z M 145.75 276.261719 " fill-opacity="1" fill-rule="evenodd"/></g></g></g><g clip-path="url(#2f98c5ab5e)"><g clip-path="url(#b437dd402c)"><g clip-path="url(#4cc8081f46)"><path fill="#d8efdd" d="M 136.394531 289.121094 C 135.492188 289.265625 134.535156 289.0625 133.742188 288.484375 L 78.132812 248.03125 C 74.335938 245.269531 78.53125 239.503906 82.324219 242.265625 L 137.933594 282.71875 C 140.511719 284.59375 139.5 288.632812 136.394531 289.121094 Z M 136.394531 289.121094 " fill-opacity="1" fill-rule="evenodd"/></g></g></g><g clip-path="url(#5430b2effd)"><g clip-path="url(#8651069479)"><g clip-path="url(#3da8e46b85)"><path fill="#d8efdd" d="M 127.035156 301.980469 C 126.136719 302.121094 125.179688 301.917969 124.386719 301.339844 L 68.777344 260.886719 C 64.980469 258.125 69.175781 252.363281 72.96875 255.125 L 128.578125 295.574219 C 131.15625 297.449219 130.144531 301.488281 127.039062 301.980469 Z M 127.035156 301.980469 " fill-opacity="1" fill-rule="evenodd"/></g></g></g><g clip-path="url(#109d38039e)"><g clip-path="url(#aa1564dcfc)"><g clip-path="url(#d395f378d2)"><path fill="#d8efdd" d="M 117.679688 314.84375 C 116.777344 314.988281 115.824219 314.785156 115.027344 314.207031 L 59.417969 273.75 C 55.621094 270.988281 59.820312 265.226562 63.609375 267.984375 L 119.21875 308.441406 C 121.796875 310.316406 120.785156 314.355469 117.679688 314.84375 Z M 117.679688 314.84375 " fill-opacity="1" fill-rule="evenodd"/></g></g></g><g clip-path="url(#cb8f0d11e1)"><g clip-path="url(#3cedeaacd1)"><g clip-path="url(#8550a656c1)"><path fill="#d8efdd" d="M 108.324219 327.707031 C 107.421875 327.847656 106.46875 327.644531 105.671875 327.066406 L 50.0625 286.613281 C 46.265625 283.851562 50.460938 278.085938 54.253906 280.847656 L 109.863281 321.304688 C 112.441406 323.179688 111.429688 327.21875 108.324219 327.707031 Z M 108.324219 327.707031 " fill-opacity="1" fill-rule="evenodd"/></g></g></g><g clip-path="url(#2d311e32f3)"><g clip-path="url(#b57c716b11)"><g clip-path="url(#9a50445201)"><path fill="#d8efdd" d="M 209.386719 217.734375 C 205.074219 218.414062 199.820312 213.265625 194.714844 209.546875 C 193.125 208.386719 192.773438 206.160156 193.929688 204.566406 L 209.085938 183.734375 C 212.070312 179.636719 217.796875 185.664062 223.640625 189.917969 C 226.691406 192.136719 227.375 196.425781 225.148438 199.476562 L 213.859375 215 C 212.785156 216.480469 211.195312 217.449219 209.386719 217.734375 Z M 201.789062 205.878906 L 208.257812 210.585938 L 219.21875 195.515625 L 212.75 190.8125 Z M 201.789062 205.878906 " fill-opacity="1" fill-rule="evenodd"/></g></g></g><g clip-path="url(#3e58773553)"><g clip-path="url(#c7e263f4f8)"><g clip-path="url(#e20cc58ae9)"><path fill="#d8efdd" d="M 223.984375 220.308594 C 221.40625 220.714844 214.976562 215.046875 211.339844 212.402344 C 207.539062 209.636719 211.746094 203.878906 215.535156 206.636719 L 225.527344 213.90625 C 228.101562 215.78125 227.09375 219.820312 223.984375 220.308594 Z M 230.347656 211.5625 C 227.765625 211.96875 221.339844 206.300781 217.703125 203.65625 C 213.90625 200.890625 218.109375 195.132812 221.898438 197.890625 L 231.890625 205.160156 C 234.46875 207.035156 233.449219 211.070312 230.347656 211.5625 Z M 230.347656 211.5625 " fill-opacity="1" fill-rule="evenodd"/></g></g></g><g clip-path="url(#a32c724a0c)"><g clip-path="url(#75a96773d0)"><g clip-path="url(#88a6cb397f)"><path fill="#d8efdd" d="M 224.75 245.398438 C 219.425781 246.238281 208.695312 230.984375 217.921875 218.300781 L 229.535156 202.339844 C 239.820312 188.207031 261.621094 196.488281 256.78125 203.144531 L 227.078125 243.976562 C 226.496094 244.773438 225.652344 245.257812 224.75 245.402344 Z M 243.011719 201.832031 C 239.882812 202.324219 237.144531 203.992188 235.296875 206.535156 L 223.6875 222.496094 C 220.644531 226.671875 220.714844 232.34375 223.730469 236.457031 L 248.59375 202.28125 C 246.824219 201.6875 244.921875 201.527344 243.011719 201.828125 Z M 243.011719 201.832031 " fill-opacity="1" fill-rule="evenodd"/></g></g></g><g clip-path="url(#9039ddef01)"><g clip-path="url(#5fe48803bf)"><g clip-path="url(#39bf72d4a6)"><path fill="#d8efdd" d="M 249.5625 232.230469 C 246.984375 232.636719 240.582031 226.984375 236.949219 224.34375 C 233.152344 221.582031 237.347656 215.816406 241.144531 218.578125 L 251.101562 225.824219 C 253.679688 227.699219 252.664062 231.738281 249.5625 232.230469 Z M 249.5625 232.230469 " fill-opacity="1" fill-rule="evenodd"/></g></g></g><g clip-path="url(#3135c8edae)"><g clip-path="url(#7ff8cc6c6f)"><g clip-path="url(#45f9a469c1)"><path fill="#d8efdd" d="M 256.78125 244.023438 C 242.402344 246.292969 238.960938 224.464844 253.339844 222.195312 C 267.714844 219.925781 271.160156 241.757812 256.78125 244.023438 Z M 254.449219 229.234375 C 251.011719 229.777344 249.929688 234.230469 252.75 236.28125 C 256.902344 239.300781 261.566406 232.992188 257.367188 229.9375 C 256.519531 229.320312 255.484375 229.070312 254.449219 229.234375 Z M 254.449219 229.234375 " fill-opacity="1" fill-rule="evenodd"/></g></g></g></g></g></g><g mask="url(#a12080daa5)"><g transform="matrix(1, 0, 0, 1, 0, 0.000000000000003053)"><g clip-path="url(#73e5eb0a7c)"><g clip-path="url(#de3e3487ef)"><g clip-path="url(#cb046af672)"><g clip-path="url(#9d864598bc)"><path fill="#d8efdd" d="M 253.988281 287.980469 C 249.355469 288.710938 248.246094 281.671875 252.878906 280.941406 C 283.726562 276.074219 304.757812 247.164062 299.894531 216.316406 C 299.160156 211.683594 306.203125 210.574219 306.933594 215.207031 C 312.414062 249.949219 288.734375 282.5 253.988281 287.980469 Z M 253.988281 287.980469 " fill-opacity="1" fill-rule="evenodd"/></g></g></g><g clip-path="url(#1b575f0103)"><g clip-path="url(#73ebedbe94)"><g clip-path="url(#b2e9ae785c)"><path fill="#d8efdd" d="M 252.003906 275.402344 C 247.371094 276.132812 246.261719 269.09375 250.894531 268.363281 C 274.792969 264.59375 291.089844 242.195312 287.316406 218.296875 C 286.585938 213.664062 293.625 212.554688 294.355469 217.1875 C 298.742188 244.980469 279.796875 271.019531 252.003906 275.402344 Z M 252.003906 275.402344 " fill-opacity="1" fill-rule="evenodd"/></g></g></g><g clip-path="url(#713b544b87)"><g clip-path="url(#450133f4bc)"><g clip-path="url(#d4a9e8dce1)"><path fill="#d8efdd" d="M 250.019531 262.828125 C 245.386719 263.558594 244.277344 256.519531 248.910156 255.789062 C 265.871094 253.113281 277.40625 237.238281 274.742188 220.28125 C 274.015625 215.644531 281.054688 214.542969 281.785156 219.171875 C 285.066406 240.003906 270.859375 259.539062 250.019531 262.828125 Z M 250.019531 262.828125 " fill-opacity="1" fill-rule="evenodd"/></g></g></g><g clip-path="url(#b491838ac5)"><g clip-path="url(#a34849c76d)"><g clip-path="url(#38f751c659)"><path fill="#d8efdd" d="M 186.550781 225.058594 C 185.652344 225.199219 184.695312 224.996094 183.898438 224.417969 L 124.871094 181.472656 C 117.433594 176.0625 115.78125 165.601562 121.195312 158.164062 L 142.542969 128.816406 C 147.953125 121.378906 158.421875 119.726562 165.855469 125.136719 L 224.886719 168.078125 C 226.480469 169.238281 226.832031 171.464844 225.671875 173.058594 L 188.878906 223.628906 C 188.300781 224.429688 187.453125 224.914062 186.550781 225.054688 Z M 154.550781 129.207031 C 152.019531 129.605469 149.804688 130.957031 148.308594 133.007812 L 126.953125 162.359375 C 123.855469 166.621094 124.800781 172.613281 129.0625 175.714844 L 185.207031 216.5625 L 217.808594 171.75 L 161.664062 130.902344 C 159.609375 129.410156 157.085938 128.808594 154.554688 129.207031 Z M 154.550781 129.207031 " fill-opacity="1" fill-rule="evenodd"/></g></g></g><g clip-path="url(#8f497e9f42)"><g clip-path="url(#8ea5d43d24)"><g clip-path="url(#daeff7c8de)"><path fill="#d8efdd" d="M 126.476562 161.253906 C 120.898438 162.132812 115.296875 147.105469 122.75 136.859375 C 130.78125 125.828125 149.539062 127.46875 146.9375 134.65625 C 146.265625 136.503906 144.222656 137.46875 142.371094 136.792969 C 131.09375 132.703125 121.382812 146.074219 128.730469 155.550781 C 130.40625 157.707031 129.113281 160.835938 126.472656 161.25 Z M 126.476562 161.253906 " fill-opacity="1" fill-rule="evenodd"/></g></g></g><g clip-path="url(#20cd2b6e02)"><g clip-path="url(#15b5c1da91)"><g clip-path="url(#2da5e2dedc)"><path fill="#d8efdd" d="M 201.195312 158.371094 C 200.292969 158.511719 199.335938 158.308594 198.542969 157.730469 L 182.582031 146.125 C 180.992188 144.964844 180.640625 142.738281 181.796875 141.148438 L 192.207031 126.839844 C 193.371094 125.25 195.597656 124.898438 197.1875 126.054688 L 213.148438 137.664062 C 214.742188 138.824219 215.089844 141.050781 213.933594 142.640625 C 210.917969 146.785156 203.941406 157.9375 201.195312 158.371094 Z M 189.65625 142.457031 L 199.855469 149.875 L 206.074219 141.328125 L 195.875 133.914062 Z M 189.65625 142.457031 " fill-opacity="1" fill-rule="evenodd"/></g></g></g><g clip-path="url(#c90d8e9000)"><g clip-path="url(#1cad68232e)"><g clip-path="url(#14c1da9f76)"><path fill="#d8efdd" d="M 231.425781 158.484375 C 230.527344 158.625 229.570312 158.421875 228.773438 157.84375 L 173.164062 117.394531 C 171.574219 116.234375 171.222656 114.011719 172.378906 112.417969 L 246.867188 10.027344 C 247.980469 8.496094 250.316406 8.128906 251.847656 9.242188 L 307.457031 49.699219 C 309.050781 50.855469 309.402344 53.082031 308.242188 54.675781 L 233.753906 157.0625 C 233.175781 157.855469 232.328125 158.339844 231.429688 158.484375 Z M 180.238281 113.726562 L 230.085938 149.988281 L 300.382812 53.359375 L 250.535156 17.097656 L 180.242188 113.726562 Z M 180.238281 113.726562 " fill-opacity="1" fill-rule="evenodd"/></g></g></g><g clip-path="url(#04caa4ba25)"><g clip-path="url(#9847c010b6)"><g clip-path="url(#3542d3cdbe)"><path fill="#d8efdd" d="M 215.660156 147.019531 C 212.558594 147.507812 210.347656 143.984375 212.222656 141.402344 L 286.714844 39.011719 C 289.472656 35.214844 295.238281 39.410156 292.476562 43.203125 L 217.988281 145.59375 C 217.40625 146.390625 216.5625 146.878906 215.660156 147.019531 Z M 191.582031 129.5 C 188.480469 129.988281 186.265625 126.460938 188.144531 123.882812 L 262.632812 21.492188 C 265.394531 17.695312 271.160156 21.890625 268.398438 25.683594 L 193.910156 128.074219 C 193.332031 128.871094 192.484375 129.355469 191.582031 129.5 Z M 191.582031 129.5 " fill-opacity="1" fill-rule="evenodd"/></g></g></g><g clip-path="url(#fb2b885f13)"><g clip-path="url(#a292b0ae63)"><g clip-path="url(#ac94b74ce9)"><path fill="#d8efdd" d="M 240.785156 145.625 C 239.886719 145.765625 238.929688 145.5625 238.132812 144.984375 L 182.523438 104.527344 C 178.726562 101.769531 182.925781 96.003906 186.71875 98.765625 L 242.328125 139.222656 C 244.90625 141.097656 243.890625 145.132812 240.789062 145.621094 Z M 240.785156 145.625 " fill-opacity="1" fill-rule="evenodd"/></g></g></g><g clip-path="url(#80ac4dd130)"><g clip-path="url(#0e608891cc)"><g clip-path="url(#90f626409d)"><path fill="#d8efdd" d="M 250.144531 132.761719 C 249.242188 132.90625 248.285156 132.703125 247.488281 132.125 L 191.878906 91.667969 C 188.082031 88.90625 192.28125 83.140625 196.074219 85.902344 L 251.683594 126.359375 C 254.265625 128.234375 253.242188 132.273438 250.144531 132.761719 Z M 250.144531 132.761719 " fill-opacity="1" fill-rule="evenodd"/></g></g></g><g clip-path="url(#de24267e65)"><g clip-path="url(#eadab19283)"><g clip-path="url(#21a24130bf)"><path fill="#d8efdd" d="M 259.5 119.902344 C 258.597656 120.042969 257.640625 119.84375 256.847656 119.265625 L 201.238281 78.808594 C 197.4375 76.050781 201.640625 70.285156 205.433594 73.046875 L 261.042969 113.5 C 263.621094 115.375 262.601562 119.414062 259.5 119.902344 Z M 259.5 119.902344 " fill-opacity="1" fill-rule="evenodd"/></g></g></g><g clip-path="url(#391a083734)"><g clip-path="url(#90f5bdb11d)"><g clip-path="url(#f270168adf)"><path fill="#d8efdd" d="M 268.855469 107.039062 C 267.957031 107.183594 267 106.980469 266.203125 106.402344 L 210.59375 65.945312 C 206.796875 63.1875 210.996094 57.421875 214.789062 60.183594 L 270.398438 100.640625 C 272.976562 102.515625 271.957031 106.550781 268.855469 107.039062 Z M 268.855469 107.039062 " fill-opacity="1" fill-rule="evenodd"/></g></g></g><g clip-path="url(#2ee3f690a4)"><g clip-path="url(#77f4f0be83)"><g clip-path="url(#fab34ac796)"><path fill="#d8efdd" d="M 278.210938 94.179688 C 277.3125 94.320312 276.355469 94.117188 275.558594 93.542969 L 219.949219 53.085938 C 216.152344 50.324219 220.351562 44.558594 224.144531 47.320312 L 279.753906 87.777344 C 282.335938 89.65625 281.3125 93.691406 278.210938 94.179688 Z M 278.210938 94.179688 " fill-opacity="1" fill-rule="evenodd"/></g></g></g><g clip-path="url(#d147341798)"><g clip-path="url(#aea3aa775d)"><g clip-path="url(#8970c72b84)"><path fill="#d8efdd" d="M 287.566406 81.316406 C 286.667969 81.457031 285.710938 81.253906 284.914062 80.675781 L 229.304688 40.21875 C 225.507812 37.460938 229.707031 31.695312 233.5 34.457031 L 289.109375 74.914062 C 291.683594 76.785156 290.671875 80.824219 287.566406 81.3125 Z M 287.566406 81.316406 " fill-opacity="1" fill-rule="evenodd"/></g></g></g><g clip-path="url(#e850f868de)"><g clip-path="url(#c396012a4c)"><g clip-path="url(#2f56ab032e)"><path fill="#d8efdd" d="M 296.925781 68.453125 C 296.027344 68.597656 295.070312 68.394531 294.273438 67.8125 L 238.664062 27.359375 C 234.867188 24.597656 239.066406 18.835938 242.859375 21.597656 L 298.464844 62.050781 C 301.042969 63.925781 300.027344 67.964844 296.925781 68.453125 Z M 296.925781 68.453125 " fill-opacity="1" fill-rule="evenodd"/></g></g></g><g clip-path="url(#928aa26221)"><g clip-path="url(#5da611e36b)"><g clip-path="url(#a1e4dcd4bf)"><path fill="#d8efdd" d="M 153.996094 223.253906 C 153.09375 223.394531 152.136719 223.191406 151.34375 222.613281 L 135.386719 211.003906 C 133.796875 209.839844 133.441406 207.613281 134.601562 206.023438 L 145.007812 191.714844 C 146.167969 190.121094 148.398438 189.769531 149.984375 190.929688 L 165.945312 202.539062 C 167.535156 203.703125 167.886719 205.929688 166.730469 207.519531 L 156.320312 221.828125 C 155.742188 222.625 154.894531 223.109375 153.996094 223.253906 Z M 142.460938 207.335938 L 152.65625 214.757812 L 158.875 206.210938 L 148.675781 198.789062 Z M 142.460938 207.335938 " fill-opacity="1" fill-rule="evenodd"/></g></g></g><g clip-path="url(#f8c0fad30a)"><g clip-path="url(#921b8a4d17)"><g clip-path="url(#27dea5e66f)"><path fill="#d8efdd" d="M 99.332031 340.066406 C 98.425781 340.207031 97.472656 340.003906 96.679688 339.425781 L 41.070312 298.972656 C 39.476562 297.808594 39.125 295.582031 40.285156 293.992188 L 114.773438 191.601562 C 115.882812 190.074219 118.222656 189.707031 119.75 190.816406 L 175.359375 231.269531 C 176.953125 232.429688 177.304688 234.660156 176.144531 236.25 L 101.652344 338.640625 C 101.074219 339.441406 100.230469 339.925781 99.328125 340.066406 Z M 48.144531 295.304688 L 97.992188 331.566406 L 168.289062 234.941406 L 118.441406 198.675781 Z M 48.144531 295.304688 " fill-opacity="1" fill-rule="evenodd"/></g></g></g><g clip-path="url(#680535b0eb)"><g clip-path="url(#59c306f3cf)"><g clip-path="url(#bfa92c0eb2)"><path fill="#d8efdd" d="M 83.566406 328.597656 C 80.464844 329.085938 78.253906 325.554688 80.132812 322.976562 L 154.621094 220.585938 C 157.382812 216.785156 163.140625 220.992188 160.382812 224.78125 L 85.894531 327.171875 C 85.3125 327.96875 84.46875 328.453125 83.566406 328.597656 Z M 59.488281 311.078125 C 56.382812 311.570312 54.171875 308.035156 56.050781 305.460938 L 130.539062 203.066406 C 133.300781 199.269531 139.0625 203.472656 136.300781 207.261719 L 61.8125 309.652344 C 61.234375 310.453125 60.386719 310.9375 59.488281 311.078125 Z M 59.488281 311.078125 " fill-opacity="1" fill-rule="evenodd"/></g></g></g><g clip-path="url(#aaaab1e5c0)"><g clip-path="url(#4b1b0c7d1c)"><g clip-path="url(#25a8ef47a6)"><path fill="#d8efdd" d="M 164.460938 250.539062 C 163.5625 250.679688 162.605469 250.476562 161.8125 249.898438 L 106.203125 209.441406 C 102.402344 206.679688 106.601562 200.917969 110.394531 203.675781 L 166.003906 244.132812 C 168.582031 246.007812 167.558594 250.050781 164.460938 250.539062 Z M 164.460938 250.539062 " fill-opacity="1" fill-rule="evenodd"/></g></g></g><g clip-path="url(#127c2ac2f3)"><g clip-path="url(#095f22c708)"><g clip-path="url(#85a418504a)"><path fill="#d8efdd" d="M 155.105469 263.398438 C 154.207031 263.542969 153.25 263.339844 152.457031 262.761719 L 96.847656 222.304688 C 93.046875 219.539062 97.246094 213.78125 101.039062 216.539062 L 156.648438 256.996094 C 159.226562 258.875 158.203125 262.914062 155.105469 263.402344 Z M 155.105469 263.398438 " fill-opacity="1" fill-rule="evenodd"/></g></g></g><g clip-path="url(#e1514a2881)"><g clip-path="url(#c24e6d0b0c)"><g clip-path="url(#2602b114d4)"><path fill="#d8efdd" d="M 145.75 276.261719 C 144.847656 276.402344 143.894531 276.199219 143.097656 275.621094 L 87.488281 235.164062 C 83.691406 232.398438 87.890625 226.636719 91.679688 229.398438 L 147.289062 269.855469 C 149.871094 271.730469 148.847656 275.773438 145.753906 276.261719 Z M 145.75 276.261719 " fill-opacity="1" fill-rule="evenodd"/></g></g></g><g clip-path="url(#5b5e58564e)"><g clip-path="url(#ddf1a5b6f4)"><g clip-path="url(#c892be3a64)"><path fill="#d8efdd" d="M 136.394531 289.121094 C 135.492188 289.265625 134.535156 289.0625 133.742188 288.484375 L 78.132812 248.03125 C 74.335938 245.269531 78.53125 239.503906 82.324219 242.265625 L 137.933594 282.71875 C 140.511719 284.59375 139.5 288.632812 136.394531 289.121094 Z M 136.394531 289.121094 " fill-opacity="1" fill-rule="evenodd"/></g></g></g><g clip-path="url(#0fadcaeeee)"><g clip-path="url(#d15af00c49)"><g clip-path="url(#426c2357e9)"><path fill="#d8efdd" d="M 127.035156 301.980469 C 126.136719 302.121094 125.179688 301.917969 124.386719 301.339844 L 68.777344 260.886719 C 64.980469 258.125 69.175781 252.363281 72.96875 255.125 L 128.578125 295.574219 C 131.15625 297.449219 130.144531 301.488281 127.039062 301.980469 Z M 127.035156 301.980469 " fill-opacity="1" fill-rule="evenodd"/></g></g></g><g clip-path="url(#745577a3f1)"><g clip-path="url(#f37ada3933)"><g clip-path="url(#262932c30f)"><path fill="#d8efdd" d="M 117.679688 314.84375 C 116.777344 314.988281 115.824219 314.785156 115.027344 314.207031 L 59.417969 273.75 C 55.621094 270.988281 59.820312 265.226562 63.609375 267.984375 L 119.21875 308.441406 C 121.796875 310.316406 120.785156 314.355469 117.679688 314.84375 Z M 117.679688 314.84375 " fill-opacity="1" fill-rule="evenodd"/></g></g></g><g clip-path="url(#b298a8b054)"><g clip-path="url(#53b93d5cb7)"><g clip-path="url(#64e9aa265e)"><path fill="#d8efdd" d="M 108.324219 327.707031 C 107.421875 327.847656 106.46875 327.644531 105.671875 327.066406 L 50.0625 286.613281 C 46.265625 283.851562 50.460938 278.085938 54.253906 280.847656 L 109.863281 321.304688 C 112.441406 323.179688 111.429688 327.21875 108.324219 327.707031 Z M 108.324219 327.707031 " fill-opacity="1" fill-rule="evenodd"/></g></g></g><g clip-path="url(#75b9f78921)"><g clip-path="url(#a353ce8aa7)"><g clip-path="url(#776466e917)"><path fill="#d8efdd" d="M 209.386719 217.734375 C 205.074219 218.414062 199.820312 213.265625 194.714844 209.546875 C 193.125 208.386719 192.773438 206.160156 193.929688 204.566406 L 209.085938 183.734375 C 212.070312 179.636719 217.796875 185.664062 223.640625 189.917969 C 226.691406 192.136719 227.375 196.425781 225.148438 199.476562 L 213.859375 215 C 212.785156 216.480469 211.195312 217.449219 209.386719 217.734375 Z M 201.789062 205.878906 L 208.257812 210.585938 L 219.21875 195.515625 L 212.75 190.8125 Z M 201.789062 205.878906 " fill-opacity="1" fill-rule="evenodd"/></g></g></g><g clip-path="url(#0b09cc132e)"><g clip-path="url(#c236504d23)"><g clip-path="url(#d094c507ec)"><path fill="#d8efdd" d="M 223.984375 220.308594 C 221.40625 220.714844 214.976562 215.046875 211.339844 212.402344 C 207.539062 209.636719 211.746094 203.878906 215.535156 206.636719 L 225.527344 213.90625 C 228.101562 215.78125 227.09375 219.820312 223.984375 220.308594 Z M 230.347656 211.5625 C 227.765625 211.96875 221.339844 206.300781 217.703125 203.65625 C 213.90625 200.890625 218.109375 195.132812 221.898438 197.890625 L 231.890625 205.160156 C 234.46875 207.035156 233.449219 211.070312 230.347656 211.5625 Z M 230.347656 211.5625 " fill-opacity="1" fill-rule="evenodd"/></g></g></g><g clip-path="url(#ed557a0137)"><g clip-path="url(#f788f3d970)"><g clip-path="url(#e95206c524)"><path fill="#d8efdd" d="M 224.75 245.398438 C 219.425781 246.238281 208.695312 230.984375 217.921875 218.300781 L 229.535156 202.339844 C 239.820312 188.207031 261.621094 196.488281 256.78125 203.144531 L 227.078125 243.976562 C 226.496094 244.773438 225.652344 245.257812 224.75 245.402344 Z M 243.011719 201.832031 C 239.882812 202.324219 237.144531 203.992188 235.296875 206.535156 L 223.6875 222.496094 C 220.644531 226.671875 220.714844 232.34375 223.730469 236.457031 L 248.59375 202.28125 C 246.824219 201.6875 244.921875 201.527344 243.011719 201.828125 Z M 243.011719 201.832031 " fill-opacity="1" fill-rule="evenodd"/></g></g></g><g clip-path="url(#d733f22648)"><g clip-path="url(#497682cde9)"><g clip-path="url(#ebe1a2959b)"><path fill="#d8efdd" d="M 249.5625 232.230469 C 246.984375 232.636719 240.582031 226.984375 236.949219 224.34375 C 233.152344 221.582031 237.347656 215.816406 241.144531 218.578125 L 251.101562 225.824219 C 253.679688 227.699219 252.664062 231.738281 249.5625 232.230469 Z M 249.5625 232.230469 " fill-opacity="1" fill-rule="evenodd"/></g></g></g><g clip-path="url(#48496ed2b9)"><g clip-path="url(#9e27814679)"><g clip-path="url(#d162f393fd)"><path fill="#d8efdd" d="M 256.78125 244.023438 C 242.402344 246.292969 238.960938 224.464844 253.339844 222.195312 C 267.714844 219.925781 271.160156 241.757812 256.78125 244.023438 Z M 254.449219 229.234375 C 251.011719 229.777344 249.929688 234.230469 252.75 236.28125 C 256.902344 239.300781 261.566406 232.992188 257.367188 229.9375 C 256.519531 229.320312 255.484375 229.070312 254.449219 229.234375 Z M 254.449219 229.234375 " fill-opacity="1" fill-rule="evenodd"/></g></g></g></g></g></g></g></svg>